<?xml version="1.0" encoding="UTF-8"?>
<svg id="Layer_1" data-name="Layer 1" xmlns="http://www.w3.org/2000/svg" viewBox="0 0 1287.04 1273.81">
  <defs>
    <style>
      .cls-1 {
        fill: #6547a6;
      }

      .cls-2 {
        fill: #231f20;
      }

      .cls-3 {
        fill: #df1f5a;
      }

      .cls-4 {
        fill: #33c5f0;
      }
    </style>
  </defs>
  <g>
    <path class="cls-3" d="M1122.15,349.49c-10.64,0-21.17-4.64-31.35-13.83-16.98-15.31-23.21-17.89-37.94-8.3-11.41,7.42-23.67,13.53-37.7,13.53-11.46,0-24.1-4.08-38.42-14.86-20.68-15.58-31.17-18.96-60.8-11.29-16.4,4.24-69.7,19.03-69.7,19.03l-14.99-25.97s60.84-17.13,79.35-21.92c34.27-8.87,52.12-5.45,79.58,15.24,20.05,15.11,32.78,11.97,50.63.36,28.63-18.62,46.45-6.17,65.16,10.7,12.38,11.17,22.47,10.34,35.97-2.96,9.87-9.72,18.7-16.43,29.68-17.55,10.43-1.07,20.93,3.01,35.13,13.62,18.81,14.06,43.27,10.2,43.51,10.16,6.83-1.19,13.16,4.39,14.17,12.46,1.01,8.07-3.73,15.58-10.56,16.78-1.36.24-33.7,5.6-60.49-14.43-18.43-13.78-22.56-11.03-35.45,1.66-10.9,10.74-21.52,16.44-32.47,17.43-1.1.1-2.21.15-3.31.15Z"/>
    <path class="cls-4" d="M1249.8,462.29c-8.78,0-35.11-1.71-56.21-20.79-17.32-15.66-21.65-13.35-35.43-2.06-11.66,9.55-22.65,14.1-33.65,13.95-11.8-.18-23.07-5.98-33.5-17.26-15.76-17.03-21.78-20.25-37.17-12.25-21.65,11.25-45.82,17.92-75.72-9.31-19.43-17.69-29.62-22.15-59.71-17.62-7.74,1.16-32.39,5.73-32.39,5.73l-15.93-27.6s34.45-5.83,45.17-7.44c34.8-5.24,52.33.04,78.12,23.53,18.83,17.15,31.75,15.36,50.4,5.67,29.92-15.55,46.73-1.28,64.1,17.49,11.49,12.42,21.6,12.65,36.05.82,10.53-8.63,19.81-14.37,30.79-14.37h.09c10.47.03,20.63,5.19,33.97,17.25,17.68,15.98,42.33,14.7,42.58,14.68,6.9-.47,12.78,5.75,13.18,13.89.4,8.14-4.89,15.13-11.78,15.6-.22.02-1.26.08-2.96.08Z"/>
    <path class="cls-1" d="M1252.04,572.31h-.04c-1.38,0-34.03-.4-57.99-24.93-16.49-16.88-20.92-14.88-35.26-4.61-12.13,8.7-23.36,12.46-34.31,11.51-11.77-1.02-22.72-7.63-32.55-19.63-14.85-18.13-20.69-21.78-36.47-14.9-22.19,9.68-46.65,14.59-75.1-14.73-14.46-14.91-23.69-21.32-41.52-22.28-1.16-.06-6.44.22-6.44.22l-16.7-28.93s8.78-.68,10.9-.77c30.69-1.39,47.24,5.85,70.19,29.51,17.92,18.47,30.9,17.62,50.02,9.28,30.66-13.37,46.71,2.08,63.08,22.07,10.83,13.23,20.91,14.18,35.94,3.41,10.99-7.87,20.56-12.95,31.57-12.12,10.45.78,20.32,6.66,33.02,19.66,16.82,17.22,41.5,17.71,41.75,17.72,6.9.02,12.46,6.66,12.44,14.82-.02,8.14-5.63,14.73-12.52,14.73Z"/>
    <g>
      <polygon class="cls-3" points="467.84 353.83 457.59 371.57 823.56 362.03 790.36 303.81 467.84 353.83"/>
      <polygon class="cls-4" points="457.59 371.57 447.92 388.32 863.66 431.49 823.56 362.03 457.59 371.57"/>
      <polygon class="cls-1" points="447.92 388.32 437.86 405.74 910.66 512.17 863.66 431.49 447.92 388.32"/>
    </g>
    <path class="cls-2" d="M643.27,49.75l330.78,572.92H312.49L643.27,49.75M643.27,15.98c-12.06,0-23.21,6.44-29.24,16.88l-330.78,572.92c-6.03,10.45-6.03,23.32,0,33.76,6.03,10.45,17.18,16.88,29.24,16.88h661.56c12.06,0,23.21-6.44,29.24-16.88,6.03-10.45,6.03-23.32,0-33.76L672.51,32.87c-6.03-10.45-17.18-16.88-29.24-16.88h0Z"/>
    <path class="cls-2" d="M38.89,514.42c-7.2,0-13.87-4.64-16.12-11.88-2.77-8.9,2.21-18.36,11.11-21.13l397.95-123.67-24.88,43.09-363.05,112.82c-1.67.52-3.36.76-5.02.76Z"/>
  </g>
  <g>
    <path class="cls-2" d="M205.42,750.6c15.68,7.97,27.83,19.15,36.46,33.52,8.62,14.38,12.94,30.97,12.94,49.78s-4.45,36.92-13.33,51.94c-8.89,15.03-21.36,26.72-37.44,35.08-16.07,8.37-34.69,12.54-55.86,12.54h-55.27v95.26H29.81v-290.08h121.52c20.38,0,38.42,3.99,54.1,11.96ZM177.59,869.37c8.1-8.23,12.15-19.27,12.15-33.12s-4.12-24.95-12.35-33.32c-8.23-8.36-19.28-12.54-33.12-12.54h-51.35v91.34h51.35c14.11,0,25.22-4.12,33.32-12.35Z"/>
    <path class="cls-2" d="M409.26,738.64c20.38,0,38.35,3.86,53.9,11.56,15.54,7.71,27.64,18.62,36.26,32.73s12.94,30.45,12.94,49-4.64,34.1-13.92,48.22c-9.28,14.11-22.15,24.83-38.61,32.14l75.66,116.42h-73.7l-63.9-103.1h-51.35v103.1h-63.11v-290.08h125.83ZM433.56,861.92c9.14-7.71,13.72-17.7,13.72-29.99s-4.05-22.6-12.15-30.18c-8.1-7.58-18.95-11.37-32.54-11.37h-56.06v83.1h50.57c15.15,0,27.3-3.85,36.46-11.56Z"/>
    <path class="cls-2" d="M622.11,738.64v290.08h-63.11v-290.08h63.11Z"/>
    <path class="cls-2" d="M638.97,1028.72l122.7-290.08h58.41l122.7,290.08h-67.42l-21.17-52.53h-127.01l-21.17,52.53h-67.03ZM834.57,924.45l-43.51-107.8-43.9,107.8h87.42Z"/>
    <path class="cls-2" d="M1009.8,738.64l98.78,186.59,97.22-186.59h59.19l.78,290.08h-65.46l-.78-173.66-75.66,144.65h-32.14l-75.66-141.12v170.13h-65.46v-290.08h59.19Z"/>
  </g>
  <g>
    <path d="M48.39,1082.57h18.67c3.4,0,6.2.46,8.4,1.39,2.2.93,3.94,2.1,5.21,3.53,1.28,1.42,2.16,3.03,2.66,4.8.5,1.78.75,3.49.75,5.14s-.25,3.36-.75,5.14c-.5,1.78-1.39,3.38-2.66,4.8-1.27,1.42-3.01,2.6-5.21,3.53-2.2.93-5,1.39-8.4,1.39h-11.47v23.4h-7.2v-53.1ZM55.59,1105.97h9.45c1.4,0,2.79-.11,4.16-.34,1.37-.23,2.6-.64,3.67-1.24,1.07-.6,1.94-1.46,2.59-2.59.65-1.12.97-2.59.97-4.39s-.33-3.26-.97-4.39c-.65-1.12-1.51-1.99-2.59-2.59-1.08-.6-2.3-1.01-3.67-1.24-1.38-.22-2.76-.34-4.16-.34h-9.45v17.1Z"/>
    <path d="M88.51,1104.47c1.9-1.75,4.1-3.06,6.6-3.94,2.5-.87,5-1.31,7.5-1.31s4.84.33,6.71.98c1.88.65,3.41,1.53,4.61,2.62s2.09,2.36,2.66,3.79c.57,1.42.86,2.91.86,4.46v18.15c0,1.25.02,2.4.08,3.45.05,1.05.12,2.05.22,3h-6c-.15-1.8-.22-3.6-.22-5.4h-.15c-1.5,2.3-3.28,3.93-5.33,4.88-2.05.95-4.42,1.43-7.12,1.43-1.65,0-3.22-.23-4.72-.68-1.5-.45-2.81-1.12-3.94-2.02-1.12-.9-2.01-2.01-2.66-3.34-.65-1.32-.97-2.86-.97-4.61,0-2.3.51-4.22,1.54-5.78,1.02-1.55,2.42-2.81,4.2-3.79,1.77-.97,3.85-1.67,6.23-2.1,2.37-.42,4.91-.64,7.61-.64h4.95v-1.5c0-.9-.18-1.8-.53-2.7-.35-.9-.88-1.71-1.58-2.44-.7-.72-1.58-1.3-2.62-1.72s-2.3-.64-3.75-.64c-1.3,0-2.44.12-3.41.38-.98.25-1.86.56-2.66.94s-1.53.81-2.17,1.31c-.65.5-1.27.97-1.88,1.42l-4.05-4.2ZM107.56,1118.57c-1.6,0-3.24.09-4.91.26-1.68.18-3.2.51-4.58,1.01-1.38.5-2.5,1.2-3.38,2.1-.88.9-1.31,2.05-1.31,3.45,0,2.05.69,3.53,2.06,4.43,1.38.9,3.24,1.35,5.59,1.35,1.85,0,3.42-.31,4.72-.94,1.3-.62,2.35-1.44,3.15-2.44.8-1,1.37-2.11,1.72-3.34.35-1.22.53-2.44.53-3.64v-2.25h-3.6Z"/>
    <path d="M125.04,1078.97h6.75v56.7h-6.75v-56.7Z"/>
    <path d="M139.89,1104.47c1.9-1.75,4.1-3.06,6.6-3.94,2.5-.87,5-1.31,7.5-1.31s4.84.33,6.71.98c1.88.65,3.41,1.53,4.61,2.62s2.09,2.36,2.66,3.79c.57,1.42.86,2.91.86,4.46v18.15c0,1.25.02,2.4.08,3.45.05,1.05.12,2.05.22,3h-6c-.15-1.8-.22-3.6-.22-5.4h-.15c-1.5,2.3-3.28,3.93-5.33,4.88-2.05.95-4.42,1.43-7.12,1.43-1.65,0-3.22-.23-4.72-.68-1.5-.45-2.81-1.12-3.94-2.02-1.12-.9-2.01-2.01-2.66-3.34-.65-1.32-.97-2.86-.97-4.61,0-2.3.51-4.22,1.54-5.78,1.02-1.55,2.42-2.81,4.2-3.79,1.77-.97,3.85-1.67,6.23-2.1,2.37-.42,4.91-.64,7.61-.64h4.95v-1.5c0-.9-.18-1.8-.53-2.7-.35-.9-.88-1.71-1.58-2.44-.7-.72-1.58-1.3-2.62-1.72s-2.3-.64-3.75-.64c-1.3,0-2.44.12-3.41.38-.98.25-1.86.56-2.66.94s-1.53.81-2.17,1.31c-.65.5-1.27.97-1.88,1.42l-4.05-4.2ZM158.94,1118.57c-1.6,0-3.24.09-4.91.26-1.68.18-3.2.51-4.58,1.01-1.38.5-2.5,1.2-3.38,2.1-.88.9-1.31,2.05-1.31,3.45,0,2.05.69,3.53,2.06,4.43,1.38.9,3.24,1.35,5.59,1.35,1.85,0,3.42-.31,4.72-.94,1.3-.62,2.35-1.44,3.15-2.44.8-1,1.37-2.11,1.72-3.34.35-1.22.53-2.44.53-3.64v-2.25h-3.6Z"/>
    <path d="M180.99,1120.37c0,1.55.34,2.96,1.01,4.24.67,1.28,1.56,2.36,2.66,3.26,1.1.9,2.37,1.6,3.83,2.1,1.45.5,2.95.75,4.5.75,2.1,0,3.92-.49,5.47-1.46,1.55-.98,2.97-2.26,4.28-3.86l5.1,3.9c-3.75,4.85-9,7.28-15.75,7.28-2.8,0-5.34-.48-7.61-1.43-2.28-.95-4.2-2.26-5.78-3.94-1.57-1.67-2.79-3.65-3.64-5.92-.85-2.27-1.28-4.74-1.28-7.39s.46-5.11,1.39-7.39c.92-2.28,2.2-4.25,3.83-5.93,1.62-1.67,3.56-2.99,5.81-3.94,2.25-.95,4.7-1.42,7.35-1.42,3.15,0,5.81.55,7.99,1.65,2.17,1.1,3.96,2.54,5.36,4.31,1.4,1.78,2.41,3.78,3.04,6,.62,2.23.94,4.49.94,6.79v2.4h-28.5ZM202.29,1114.97c-.05-1.5-.29-2.87-.71-4.12-.42-1.25-1.06-2.34-1.91-3.26-.85-.92-1.91-1.65-3.19-2.17-1.28-.52-2.76-.79-4.46-.79s-3.16.31-4.54.94c-1.38.63-2.54,1.44-3.49,2.44-.95,1-1.69,2.11-2.21,3.34-.52,1.23-.79,2.44-.79,3.64h21.3Z"/>
    <path d="M213.09,1117.89c0-2.6.49-5.02,1.46-7.27.97-2.25,2.31-4.22,4.01-5.92s3.7-3.04,6-4.01c2.3-.98,4.77-1.46,7.43-1.46s5.12.49,7.42,1.46c2.3.97,4.3,2.31,6,4.01,1.7,1.7,3.04,3.67,4.01,5.92.97,2.25,1.46,4.68,1.46,7.27s-.49,5.04-1.46,7.31c-.98,2.28-2.31,4.25-4.01,5.93-1.7,1.68-3.7,3-6,3.97-2.3.97-4.78,1.46-7.42,1.46s-5.13-.49-7.43-1.46-4.3-2.3-6-3.97c-1.7-1.67-3.04-3.65-4.01-5.93-.98-2.27-1.46-4.71-1.46-7.31ZM220.29,1117.89c0,1.8.27,3.46.83,4.99.55,1.53,1.32,2.83,2.32,3.9,1,1.08,2.22,1.93,3.68,2.55,1.45.63,3.07.94,4.88.94s3.42-.31,4.88-.94c1.45-.62,2.67-1.47,3.67-2.55,1-1.07,1.77-2.37,2.33-3.9.55-1.53.82-3.19.82-4.99s-.28-3.46-.82-4.99c-.55-1.52-1.33-2.82-2.33-3.9-1-1.08-2.23-1.92-3.67-2.55-1.45-.62-3.08-.94-4.88-.94s-3.43.31-4.88.94c-1.45.63-2.68,1.48-3.68,2.55s-1.78,2.38-2.32,3.9c-.55,1.53-.83,3.19-.83,4.99Z"/>
    <path d="M282.01,1109.57c-1.25-1.3-2.56-2.29-3.94-2.96-1.38-.67-3.01-1.01-4.91-1.01s-3.46.34-4.84,1.01c-1.38.67-2.53,1.6-3.45,2.78-.93,1.17-1.63,2.53-2.1,4.05-.48,1.53-.71,3.11-.71,4.76s.27,3.21.83,4.69c.55,1.47,1.32,2.76,2.32,3.86,1,1.1,2.2,1.96,3.6,2.59,1.4.63,2.97.94,4.72.94,1.9,0,3.53-.34,4.88-1.01,1.35-.68,2.6-1.66,3.75-2.96l4.8,4.8c-1.75,1.95-3.79,3.35-6.11,4.2s-4.79,1.28-7.39,1.28c-2.75,0-5.26-.45-7.54-1.35-2.28-.9-4.24-2.16-5.89-3.79-1.65-1.62-2.92-3.57-3.83-5.85-.9-2.27-1.35-4.79-1.35-7.54s.45-5.27,1.35-7.58c.9-2.3,2.16-4.27,3.79-5.92,1.62-1.65,3.57-2.94,5.85-3.86,2.27-.92,4.81-1.39,7.61-1.39,2.6,0,5.09.46,7.46,1.39,2.37.93,4.44,2.34,6.19,4.24l-5.1,4.65Z"/>
    <path d="M290.49,1078.97h6.75v56.7h-6.75v-56.7Z"/>
    <path d="M304.13,1087.37c0-1.35.49-2.51,1.46-3.49.97-.98,2.14-1.46,3.49-1.46s2.51.49,3.49,1.46c.98.97,1.46,2.14,1.46,3.49s-.49,2.51-1.46,3.49c-.97.97-2.14,1.46-3.49,1.46s-2.51-.49-3.49-1.46c-.98-.97-1.46-2.14-1.46-3.49ZM305.71,1100.12h6.75v35.55h-6.75v-35.55Z"/>
    <path d="M320.41,1100.12h6.3v5.55h.15c.15-.5.54-1.12,1.16-1.88.62-.75,1.42-1.46,2.4-2.14.98-.67,2.12-1.25,3.45-1.72,1.32-.47,2.79-.71,4.39-.71,2.65,0,4.88.55,6.67,1.65,1.8,1.1,3.27,2.75,4.42,4.95,1.15-2.2,2.78-3.85,4.88-4.95,2.1-1.1,4.22-1.65,6.38-1.65,2.75,0,5,.45,6.75,1.35,1.75.9,3.12,2.09,4.12,3.56,1,1.47,1.69,3.15,2.06,5.02s.56,3.81.56,5.81v20.7h-6.75v-19.8c0-1.35-.09-2.65-.26-3.9-.18-1.25-.54-2.35-1.09-3.3-.55-.95-1.33-1.71-2.33-2.29-1-.57-2.33-.86-3.97-.86-3.25,0-5.58,1-6.98,3-1.4,2-2.1,4.58-2.1,7.73v19.42h-6.75v-18.6c0-1.7-.09-3.25-.26-4.65-.18-1.4-.53-2.61-1.05-3.64-.53-1.02-1.28-1.82-2.25-2.4-.98-.57-2.29-.86-3.94-.86-1.2,0-2.36.24-3.49.71-1.12.48-2.11,1.19-2.96,2.14-.85.95-1.53,2.16-2.03,3.64s-.75,3.21-.75,5.21v18.45h-6.75v-35.55Z"/>
    <path d="M381.68,1104.47c1.9-1.75,4.1-3.06,6.6-3.94,2.5-.87,5-1.31,7.5-1.31s4.84.33,6.71.98c1.88.65,3.41,1.53,4.61,2.62s2.09,2.36,2.66,3.79c.57,1.42.86,2.91.86,4.46v18.15c0,1.25.02,2.4.08,3.45.05,1.05.12,2.05.22,3h-6c-.15-1.8-.22-3.6-.22-5.4h-.15c-1.5,2.3-3.28,3.93-5.33,4.88-2.05.95-4.42,1.43-7.12,1.43-1.65,0-3.22-.23-4.72-.68-1.5-.45-2.81-1.12-3.94-2.02-1.12-.9-2.01-2.01-2.66-3.34-.65-1.32-.97-2.86-.97-4.61,0-2.3.51-4.22,1.54-5.78,1.02-1.55,2.42-2.81,4.2-3.79,1.77-.97,3.85-1.67,6.23-2.1,2.37-.42,4.91-.64,7.61-.64h4.95v-1.5c0-.9-.18-1.8-.53-2.7-.35-.9-.88-1.71-1.58-2.44-.7-.72-1.58-1.3-2.62-1.72s-2.3-.64-3.75-.64c-1.3,0-2.44.12-3.41.38-.98.25-1.86.56-2.66.94s-1.53.81-2.17,1.31c-.65.5-1.27.97-1.88,1.42l-4.05-4.2ZM400.73,1118.57c-1.6,0-3.24.09-4.91.26-1.68.18-3.2.51-4.58,1.01-1.38.5-2.5,1.2-3.38,2.1-.88.9-1.31,2.05-1.31,3.45,0,2.05.69,3.53,2.06,4.43,1.38.9,3.24,1.35,5.59,1.35,1.85,0,3.42-.31,4.72-.94,1.3-.62,2.35-1.44,3.15-2.44.8-1,1.37-2.11,1.72-3.34.35-1.22.53-2.44.53-3.64v-2.25h-3.6Z"/>
    <path d="M436.73,1105.97h-9.68v16.12c0,1,.03,1.99.08,2.96.05.97.24,1.85.56,2.62.33.78.83,1.4,1.5,1.88.67.48,1.66.71,2.96.71.8,0,1.62-.07,2.47-.22.85-.15,1.62-.42,2.33-.83v6.15c-.8.45-1.84.76-3.11.94-1.28.17-2.26.26-2.96.26-2.6,0-4.61-.36-6.04-1.09s-2.48-1.66-3.15-2.81c-.67-1.15-1.08-2.44-1.2-3.86s-.19-2.86-.19-4.31v-18.53h-7.8v-5.85h7.8v-9.98h6.75v9.98h9.68v5.85Z"/>
    <path d="M441.61,1087.37c0-1.35.49-2.51,1.46-3.49.97-.98,2.14-1.46,3.49-1.46s2.51.49,3.49,1.46c.98.97,1.46,2.14,1.46,3.49s-.49,2.51-1.46,3.49c-.97.97-2.14,1.46-3.49,1.46s-2.51-.49-3.49-1.46c-.98-.97-1.46-2.14-1.46-3.49ZM443.18,1100.12h6.75v35.55h-6.75v-35.55Z"/>
    <path d="M483.31,1109.57c-1.25-1.3-2.56-2.29-3.94-2.96-1.38-.67-3.01-1.01-4.91-1.01s-3.46.34-4.84,1.01c-1.38.67-2.53,1.6-3.45,2.78-.93,1.17-1.63,2.53-2.1,4.05-.48,1.53-.71,3.11-.71,4.76s.27,3.21.83,4.69c.55,1.47,1.32,2.76,2.32,3.86,1,1.1,2.2,1.96,3.6,2.59,1.4.63,2.97.94,4.72.94,1.9,0,3.53-.34,4.88-1.01,1.35-.68,2.6-1.66,3.75-2.96l4.8,4.8c-1.75,1.95-3.79,3.35-6.11,4.2s-4.79,1.28-7.39,1.28c-2.75,0-5.26-.45-7.54-1.35-2.28-.9-4.24-2.16-5.89-3.79-1.65-1.62-2.92-3.57-3.83-5.85-.9-2.27-1.35-4.79-1.35-7.54s.45-5.27,1.35-7.58c.9-2.3,2.16-4.27,3.79-5.92,1.62-1.65,3.57-2.94,5.85-3.86,2.27-.92,4.81-1.39,7.61-1.39,2.6,0,5.09.46,7.46,1.39,2.37.93,4.44,2.34,6.19,4.24l-5.1,4.65Z"/>
    <path d="M511.06,1082.57h18.67c3.4,0,6.2.46,8.4,1.39,2.2.93,3.94,2.1,5.21,3.53,1.28,1.42,2.16,3.03,2.66,4.8.5,1.78.75,3.49.75,5.14s-.3,3.34-.9,4.91c-.6,1.58-1.46,3-2.59,4.28s-2.5,2.35-4.12,3.22c-1.62.88-3.44,1.41-5.44,1.61l15.08,24.22h-9l-13.5-23.4h-8.02v23.4h-7.2v-53.1ZM518.26,1105.97h9.45c1.4,0,2.79-.11,4.16-.34,1.37-.23,2.6-.64,3.67-1.24,1.07-.6,1.94-1.46,2.59-2.59.65-1.12.97-2.59.97-4.39s-.33-3.26-.97-4.39c-.65-1.12-1.51-1.99-2.59-2.59-1.08-.6-2.3-1.01-3.67-1.24-1.38-.22-2.76-.34-4.16-.34h-9.45v17.1Z"/>
    <path d="M557.48,1120.37c0,1.55.34,2.96,1.01,4.24.67,1.28,1.56,2.36,2.66,3.26,1.1.9,2.37,1.6,3.83,2.1,1.45.5,2.95.75,4.5.75,2.1,0,3.92-.49,5.47-1.46,1.55-.98,2.97-2.26,4.28-3.86l5.1,3.9c-3.75,4.85-9,7.28-15.75,7.28-2.8,0-5.34-.48-7.61-1.43-2.28-.95-4.2-2.26-5.78-3.94-1.57-1.67-2.79-3.65-3.64-5.92-.85-2.27-1.28-4.74-1.28-7.39s.46-5.11,1.39-7.39c.92-2.28,2.2-4.25,3.83-5.93,1.62-1.67,3.56-2.99,5.81-3.94,2.25-.95,4.7-1.42,7.35-1.42,3.15,0,5.81.55,7.99,1.65,2.17,1.1,3.96,2.54,5.36,4.31,1.4,1.78,2.41,3.78,3.04,6,.62,2.23.94,4.49.94,6.79v2.4h-28.5ZM578.78,1114.97c-.05-1.5-.29-2.87-.71-4.12-.42-1.25-1.06-2.34-1.91-3.26-.85-.92-1.91-1.65-3.19-2.17-1.28-.52-2.76-.79-4.46-.79s-3.16.31-4.54.94c-1.38.63-2.54,1.44-3.49,2.44-.95,1-1.69,2.11-2.21,3.34-.52,1.23-.79,2.44-.79,3.64h21.3Z"/>
    <path d="M616.73,1109.57c-1.25-1.3-2.56-2.29-3.94-2.96-1.38-.67-3.01-1.01-4.91-1.01s-3.46.34-4.84,1.01c-1.38.67-2.53,1.6-3.45,2.78-.93,1.17-1.63,2.53-2.1,4.05-.48,1.53-.71,3.11-.71,4.76s.27,3.21.83,4.69c.55,1.47,1.32,2.76,2.32,3.86,1,1.1,2.2,1.96,3.6,2.59,1.4.63,2.97.94,4.72.94,1.9,0,3.53-.34,4.88-1.01,1.35-.68,2.6-1.66,3.75-2.96l4.8,4.8c-1.75,1.95-3.79,3.35-6.11,4.2s-4.79,1.28-7.39,1.28c-2.75,0-5.26-.45-7.54-1.35-2.28-.9-4.24-2.16-5.89-3.79-1.65-1.62-2.92-3.57-3.83-5.85-.9-2.27-1.35-4.79-1.35-7.54s.45-5.27,1.35-7.58c.9-2.3,2.16-4.27,3.79-5.92,1.62-1.65,3.57-2.94,5.85-3.86,2.27-.92,4.81-1.39,7.61-1.39,2.6,0,5.09.46,7.46,1.39,2.37.93,4.44,2.34,6.19,4.24l-5.1,4.65Z"/>
    <path d="M622.95,1117.89c0-2.6.49-5.02,1.46-7.27.97-2.25,2.31-4.22,4.01-5.92s3.7-3.04,6-4.01c2.3-.98,4.77-1.46,7.43-1.46s5.12.49,7.42,1.46c2.3.97,4.3,2.31,6,4.01,1.7,1.7,3.04,3.67,4.01,5.92.97,2.25,1.46,4.68,1.46,7.27s-.49,5.04-1.46,7.31c-.98,2.28-2.31,4.25-4.01,5.93-1.7,1.68-3.7,3-6,3.97-2.3.97-4.78,1.46-7.42,1.46s-5.13-.49-7.43-1.46-4.3-2.3-6-3.97c-1.7-1.67-3.04-3.65-4.01-5.93-.98-2.27-1.46-4.71-1.46-7.31ZM630.15,1117.89c0,1.8.27,3.46.83,4.99.55,1.53,1.32,2.83,2.32,3.9,1,1.08,2.22,1.93,3.68,2.55,1.45.63,3.07.94,4.88.94s3.42-.31,4.88-.94c1.45-.62,2.67-1.47,3.67-2.55,1-1.07,1.77-2.37,2.33-3.9.55-1.53.82-3.19.82-4.99s-.28-3.46-.82-4.99c-.55-1.52-1.33-2.82-2.33-3.9-1-1.08-2.23-1.92-3.67-2.55-1.45-.62-3.08-.94-4.88-.94s-3.43.31-4.88.94c-1.45.63-2.68,1.48-3.68,2.55s-1.78,2.38-2.32,3.9c-.55,1.53-.83,3.19-.83,4.99Z"/>
    <path d="M666.45,1100.12h6.75v5.47h.15c.85-1.9,2.33-3.44,4.42-4.61,2.1-1.17,4.52-1.76,7.28-1.76,1.7,0,3.34.26,4.91.79,1.58.52,2.95,1.34,4.12,2.44s2.11,2.51,2.81,4.24c.7,1.72,1.05,3.76,1.05,6.11v22.88h-6.75v-21c0-1.65-.22-3.06-.67-4.24s-1.05-2.12-1.8-2.85c-.75-.72-1.61-1.25-2.59-1.57-.97-.33-1.99-.49-3.04-.49-1.4,0-2.7.23-3.9.68-1.2.45-2.25,1.16-3.15,2.14-.9.98-1.6,2.21-2.1,3.71s-.75,3.28-.75,5.33v18.3h-6.75v-35.55Z"/>
    <path d="M724.28,1109.04c-.8-1-1.79-1.84-2.96-2.51s-2.61-1.01-4.31-1.01c-1.6,0-2.99.34-4.16,1.01-1.18.67-1.76,1.66-1.76,2.96,0,1.05.34,1.9,1.01,2.55.67.65,1.47,1.18,2.4,1.58.92.4,1.91.7,2.96.9,1.05.2,1.95.38,2.7.53,1.45.35,2.81.78,4.09,1.28,1.27.5,2.37,1.15,3.3,1.95.92.8,1.65,1.78,2.17,2.93s.79,2.55.79,4.2c0,2-.42,3.71-1.27,5.14-.85,1.42-1.95,2.59-3.3,3.49-1.35.9-2.89,1.55-4.61,1.95-1.72.4-3.46.6-5.21.6-2.95,0-5.54-.45-7.76-1.35-2.23-.9-4.21-2.55-5.96-4.95l5.1-4.2c1.1,1.1,2.33,2.08,3.67,2.92,1.35.85,3,1.27,4.95,1.27.85,0,1.71-.09,2.59-.26.88-.17,1.65-.45,2.33-.83s1.22-.85,1.65-1.42c.42-.57.64-1.24.64-1.99,0-1-.31-1.82-.94-2.47-.63-.65-1.38-1.16-2.25-1.54-.88-.38-1.8-.68-2.78-.9s-1.84-.41-2.59-.56c-1.45-.35-2.83-.75-4.12-1.2-1.3-.45-2.45-1.05-3.45-1.8-1-.75-1.8-1.7-2.4-2.85s-.9-2.58-.9-4.28c0-1.85.39-3.46,1.16-4.84.77-1.37,1.8-2.51,3.08-3.41,1.27-.9,2.72-1.58,4.35-2.03,1.62-.45,3.26-.67,4.91-.67,2.4,0,4.7.45,6.9,1.35,2.2.9,3.95,2.4,5.25,4.5l-5.25,3.97Z"/>
    <path d="M754.95,1105.97h-9.68v16.12c0,1,.03,1.99.08,2.96.05.97.24,1.85.56,2.62.33.78.83,1.4,1.5,1.88.67.48,1.66.71,2.96.71.8,0,1.62-.07,2.47-.22.85-.15,1.62-.42,2.33-.83v6.15c-.8.45-1.84.76-3.11.94-1.28.17-2.26.26-2.96.26-2.6,0-4.61-.36-6.04-1.09s-2.48-1.66-3.15-2.81c-.67-1.15-1.08-2.44-1.2-3.86s-.19-2.86-.19-4.31v-18.53h-7.8v-5.85h7.8v-9.98h6.75v9.98h9.68v5.85Z"/>
    <path d="M760.88,1100.12h6.75v5.47h.15c.45-.95,1.05-1.81,1.8-2.59s1.59-1.44,2.51-1.99c.92-.55,1.94-.99,3.04-1.31,1.1-.32,2.2-.49,3.3-.49s2.1.15,3,.45l-.3,7.28c-.55-.15-1.1-.27-1.65-.38-.55-.1-1.1-.15-1.65-.15-3.3,0-5.83.93-7.58,2.78s-2.62,4.72-2.62,8.62v17.85h-6.75v-35.55Z"/>
    <path d="M817.35,1135.67h-6.75v-5.47h-.15c-.85,1.9-2.33,3.44-4.42,4.61-2.1,1.17-4.53,1.76-7.28,1.76-1.75,0-3.4-.26-4.95-.79-1.55-.52-2.91-1.34-4.09-2.44-1.18-1.1-2.11-2.51-2.81-4.24-.7-1.72-1.05-3.76-1.05-6.11v-22.88h6.75v21c0,1.65.23,3.06.68,4.24.45,1.18,1.05,2.13,1.8,2.85.75.73,1.61,1.25,2.59,1.58.98.33,1.99.49,3.04.49,1.4,0,2.7-.22,3.9-.67,1.2-.45,2.25-1.16,3.15-2.14.9-.97,1.6-2.21,2.1-3.71s.75-3.27.75-5.33v-18.3h6.75v35.55Z"/>
    <path d="M850.2,1109.57c-1.25-1.3-2.56-2.29-3.94-2.96-1.38-.67-3.01-1.01-4.91-1.01s-3.46.34-4.84,1.01c-1.38.67-2.53,1.6-3.45,2.78-.93,1.17-1.63,2.53-2.1,4.05-.48,1.53-.71,3.11-.71,4.76s.27,3.21.83,4.69c.55,1.47,1.32,2.76,2.32,3.86,1,1.1,2.2,1.96,3.6,2.59,1.4.63,2.97.94,4.72.94,1.9,0,3.53-.34,4.88-1.01,1.35-.68,2.6-1.66,3.75-2.96l4.8,4.8c-1.75,1.95-3.79,3.35-6.11,4.2s-4.79,1.28-7.39,1.28c-2.75,0-5.26-.45-7.54-1.35-2.28-.9-4.24-2.16-5.89-3.79-1.65-1.62-2.92-3.57-3.83-5.85-.9-2.27-1.35-4.79-1.35-7.54s.45-5.27,1.35-7.58c.9-2.3,2.16-4.27,3.79-5.92,1.62-1.65,3.57-2.94,5.85-3.86,2.27-.92,4.81-1.39,7.61-1.39,2.6,0,5.09.46,7.46,1.39,2.37.93,4.44,2.34,6.19,4.24l-5.1,4.65Z"/>
    <path d="M877.2,1105.97h-9.68v16.12c0,1,.03,1.99.08,2.96.05.97.24,1.85.56,2.62.33.78.83,1.4,1.5,1.88.67.48,1.66.71,2.96.71.8,0,1.62-.07,2.47-.22.85-.15,1.62-.42,2.33-.83v6.15c-.8.45-1.84.76-3.11.94-1.28.17-2.26.26-2.96.26-2.6,0-4.61-.36-6.04-1.09s-2.48-1.66-3.15-2.81c-.67-1.15-1.08-2.44-1.2-3.86s-.19-2.86-.19-4.31v-18.53h-7.8v-5.85h7.8v-9.98h6.75v9.98h9.68v5.85Z"/>
    <path d="M882.08,1087.37c0-1.35.49-2.51,1.46-3.49.97-.98,2.14-1.46,3.49-1.46s2.51.49,3.49,1.46c.98.97,1.46,2.14,1.46,3.49s-.49,2.51-1.46,3.49c-.97.97-2.14,1.46-3.49,1.46s-2.51-.49-3.49-1.46c-.98-.97-1.46-2.14-1.46-3.49ZM883.65,1100.12h6.75v35.55h-6.75v-35.55Z"/>
    <path d="M896.63,1117.89c0-2.6.49-5.02,1.46-7.27.97-2.25,2.31-4.22,4.01-5.92s3.7-3.04,6-4.01c2.3-.98,4.77-1.46,7.43-1.46s5.12.49,7.42,1.46c2.3.97,4.3,2.31,6,4.01,1.7,1.7,3.04,3.67,4.01,5.92.97,2.25,1.46,4.68,1.46,7.27s-.49,5.04-1.46,7.31c-.98,2.28-2.31,4.25-4.01,5.93-1.7,1.68-3.7,3-6,3.97-2.3.97-4.78,1.46-7.42,1.46s-5.13-.49-7.43-1.46-4.3-2.3-6-3.97c-1.7-1.67-3.04-3.65-4.01-5.93-.98-2.27-1.46-4.71-1.46-7.31ZM903.83,1117.89c0,1.8.27,3.46.83,4.99.55,1.53,1.32,2.83,2.32,3.9,1,1.08,2.22,1.93,3.68,2.55,1.45.63,3.07.94,4.88.94s3.42-.31,4.88-.94c1.45-.62,2.67-1.47,3.67-2.55,1-1.07,1.77-2.37,2.33-3.9.55-1.53.82-3.19.82-4.99s-.28-3.46-.82-4.99c-.55-1.52-1.33-2.82-2.33-3.9-1-1.08-2.23-1.92-3.67-2.55-1.45-.62-3.08-.94-4.88-.94s-3.43.31-4.88.94c-1.45.63-2.68,1.48-3.68,2.55s-1.78,2.38-2.32,3.9c-.55,1.53-.83,3.19-.83,4.99Z"/>
    <path d="M940.13,1100.12h6.75v5.47h.15c.85-1.9,2.33-3.44,4.42-4.61,2.1-1.17,4.52-1.76,7.28-1.76,1.7,0,3.34.26,4.91.79,1.58.52,2.95,1.34,4.12,2.44s2.11,2.51,2.81,4.24c.7,1.72,1.05,3.76,1.05,6.11v22.88h-6.75v-21c0-1.65-.22-3.06-.67-4.24s-1.05-2.12-1.8-2.85c-.75-.72-1.61-1.25-2.59-1.57-.97-.33-1.99-.49-3.04-.49-1.4,0-2.7.23-3.9.68-1.2.45-2.25,1.16-3.15,2.14-.9.98-1.6,2.21-2.1,3.71s-.75,3.28-.75,5.33v18.3h-6.75v-35.55Z"/>
    <path d="M1016.18,1105.97h-9.68v16.12c0,1,.03,1.99.08,2.96.05.97.24,1.85.56,2.62.33.78.83,1.4,1.5,1.88.67.48,1.66.71,2.96.71.8,0,1.62-.07,2.47-.22.85-.15,1.62-.42,2.33-.83v6.15c-.8.45-1.84.76-3.11.94-1.28.17-2.26.26-2.96.26-2.6,0-4.61-.36-6.04-1.09s-2.48-1.66-3.15-2.81c-.67-1.15-1.08-2.44-1.2-3.86s-.19-2.86-.19-4.31v-18.53h-7.8v-5.85h7.8v-9.98h6.75v9.98h9.68v5.85Z"/>
    <path d="M1022.1,1078.97h6.75v26.62h.15c.85-1.9,2.33-3.44,4.42-4.61,2.1-1.17,4.52-1.76,7.28-1.76,1.7,0,3.34.26,4.91.79,1.58.52,2.95,1.34,4.12,2.44s2.11,2.51,2.81,4.24c.7,1.72,1.05,3.76,1.05,6.11v22.88h-6.75v-21c0-1.65-.22-3.06-.67-4.24s-1.05-2.12-1.8-2.85c-.75-.72-1.61-1.25-2.59-1.57-.97-.33-1.99-.49-3.04-.49-1.4,0-2.7.23-3.9.68-1.2.45-2.25,1.16-3.15,2.14-.9.98-1.6,2.21-2.1,3.71s-.75,3.28-.75,5.33v18.3h-6.75v-56.7Z"/>
    <path d="M1061.03,1100.12h6.75v5.47h.15c.45-.95,1.05-1.81,1.8-2.59s1.59-1.44,2.51-1.99c.92-.55,1.94-.99,3.04-1.31,1.1-.32,2.2-.49,3.3-.49s2.1.15,3,.45l-.3,7.28c-.55-.15-1.1-.27-1.65-.38-.55-.1-1.1-.15-1.65-.15-3.3,0-5.83.93-7.58,2.78s-2.62,4.72-2.62,8.62v17.85h-6.75v-35.55Z"/>
    <path d="M1082.93,1117.89c0-2.6.49-5.02,1.46-7.27.97-2.25,2.31-4.22,4.01-5.92s3.7-3.04,6-4.01c2.3-.98,4.77-1.46,7.43-1.46s5.12.49,7.42,1.46c2.3.97,4.3,2.31,6,4.01,1.7,1.7,3.04,3.67,4.01,5.92.97,2.25,1.46,4.68,1.46,7.27s-.49,5.04-1.46,7.31c-.98,2.28-2.31,4.25-4.01,5.93-1.7,1.68-3.7,3-6,3.97-2.3.97-4.78,1.46-7.42,1.46s-5.13-.49-7.43-1.46-4.3-2.3-6-3.97c-1.7-1.67-3.04-3.65-4.01-5.93-.98-2.27-1.46-4.71-1.46-7.31ZM1090.13,1117.89c0,1.8.27,3.46.83,4.99.55,1.53,1.32,2.83,2.32,3.9,1,1.08,2.22,1.93,3.68,2.55,1.45.63,3.07.94,4.88.94s3.42-.31,4.88-.94c1.45-.62,2.67-1.47,3.67-2.55,1-1.07,1.77-2.37,2.33-3.9.55-1.53.82-3.19.82-4.99s-.28-3.46-.82-4.99c-.55-1.52-1.33-2.82-2.33-3.9-1-1.08-2.23-1.92-3.67-2.55-1.45-.62-3.08-.94-4.88-.94s-3.43.31-4.88.94c-1.45.63-2.68,1.48-3.68,2.55s-1.78,2.38-2.32,3.9c-.55,1.53-.83,3.19-.83,4.99Z"/>
    <path d="M1157.93,1135.67h-6.75v-5.47h-.15c-.85,1.9-2.33,3.44-4.42,4.61-2.1,1.17-4.53,1.76-7.28,1.76-1.75,0-3.4-.26-4.95-.79-1.55-.52-2.91-1.34-4.09-2.44-1.18-1.1-2.11-2.51-2.81-4.24-.7-1.72-1.05-3.76-1.05-6.11v-22.88h6.75v21c0,1.65.23,3.06.68,4.24.45,1.18,1.05,2.13,1.8,2.85.75.73,1.61,1.25,2.59,1.58.98.33,1.99.49,3.04.49,1.4,0,2.7-.22,3.9-.67,1.2-.45,2.25-1.16,3.15-2.14.9-.97,1.6-2.21,2.1-3.71s.75-3.27.75-5.33v-18.3h6.75v35.55Z"/>
    <path d="M1200.98,1135.37c0,2.7-.46,5.16-1.39,7.39-.93,2.22-2.24,4.15-3.94,5.77-1.7,1.62-3.75,2.89-6.15,3.79-2.4.9-5.05,1.35-7.95,1.35-3.4,0-6.51-.48-9.34-1.42-2.83-.95-5.51-2.6-8.06-4.95l4.57-5.7c1.75,1.9,3.65,3.34,5.7,4.31,2.05.98,4.38,1.46,6.98,1.46s4.57-.36,6.22-1.09c1.65-.73,2.96-1.66,3.94-2.81.97-1.15,1.66-2.46,2.06-3.94.4-1.48.6-2.96.6-4.46v-5.25h-.22c-1.3,2.15-3.06,3.74-5.29,4.76-2.23,1.03-4.56,1.54-7.01,1.54-2.6,0-5.01-.46-7.24-1.39-2.23-.92-4.14-2.2-5.74-3.83-1.6-1.62-2.85-3.55-3.75-5.77-.9-2.22-1.35-4.64-1.35-7.24s.42-5.04,1.28-7.31c.85-2.27,2.06-4.26,3.64-5.96,1.58-1.7,3.47-3.02,5.7-3.98,2.22-.95,4.71-1.42,7.46-1.42,2.4,0,4.74.53,7.01,1.58,2.27,1.05,4.06,2.53,5.36,4.42h.15v-5.1h6.75v35.25ZM1182.53,1105.52c-1.8,0-3.43.31-4.88.94-1.45.63-2.68,1.48-3.68,2.55s-1.78,2.38-2.32,3.9c-.55,1.53-.83,3.19-.83,4.99,0,3.6,1.05,6.49,3.15,8.66,2.1,2.17,4.95,3.26,8.55,3.26s6.45-1.09,8.55-3.26c2.1-2.17,3.15-5.06,3.15-8.66,0-1.8-.28-3.46-.82-4.99-.55-1.52-1.33-2.82-2.33-3.9-1-1.08-2.23-1.92-3.67-2.55-1.45-.62-3.08-.94-4.88-.94Z"/>
    <path d="M1208.4,1078.97h6.75v26.62h.15c.85-1.9,2.33-3.44,4.42-4.61,2.1-1.17,4.52-1.76,7.28-1.76,1.7,0,3.34.26,4.91.79,1.58.52,2.95,1.34,4.12,2.44s2.11,2.51,2.81,4.24c.7,1.72,1.05,3.76,1.05,6.11v22.88h-6.75v-21c0-1.65-.22-3.06-.67-4.24s-1.05-2.12-1.8-2.85c-.75-.72-1.61-1.25-2.59-1.57-.97-.33-1.99-.49-3.04-.49-1.4,0-2.7.23-3.9.68-1.2.45-2.25,1.16-3.15,2.14-.9.98-1.6,2.21-2.1,3.71s-.75,3.28-.75,5.33v18.3h-6.75v-56.7Z"/>
    <path d="M147.35,1172.57h7.2v53.1h-7.2v-53.1Z"/>
    <path d="M163.7,1190.12h6.75v5.47h.15c.85-1.9,2.33-3.44,4.42-4.61,2.1-1.17,4.52-1.76,7.28-1.76,1.7,0,3.34.26,4.91.79,1.58.52,2.95,1.34,4.12,2.44s2.11,2.51,2.81,4.24c.7,1.72,1.05,3.76,1.05,6.11v22.88h-6.75v-21c0-1.65-.22-3.06-.67-4.24s-1.05-2.12-1.8-2.85c-.75-.72-1.61-1.25-2.59-1.57-.97-.33-1.99-.49-3.04-.49-1.4,0-2.7.23-3.9.68-1.2.45-2.25,1.16-3.15,2.14-.9.98-1.6,2.21-2.1,3.71s-.75,3.28-.75,5.33v18.3h-6.75v-35.55Z"/>
    <path d="M221.68,1195.97h-9.68v16.12c0,1,.03,1.99.08,2.96.05.97.24,1.85.56,2.62.33.78.83,1.4,1.5,1.88.67.48,1.66.71,2.96.71.8,0,1.62-.07,2.47-.22.85-.15,1.62-.42,2.33-.83v6.15c-.8.45-1.84.76-3.11.94-1.28.17-2.26.26-2.96.26-2.6,0-4.61-.36-6.04-1.09s-2.48-1.66-3.15-2.81c-.67-1.15-1.08-2.44-1.2-3.86s-.19-2.86-.19-4.31v-18.53h-7.8v-5.85h7.8v-9.98h6.75v9.98h9.68v5.85Z"/>
    <path d="M232.7,1210.37c0,1.55.34,2.96,1.01,4.24.67,1.28,1.56,2.36,2.66,3.26,1.1.9,2.37,1.6,3.83,2.1,1.45.5,2.95.75,4.5.75,2.1,0,3.92-.49,5.47-1.46,1.55-.98,2.97-2.26,4.28-3.86l5.1,3.9c-3.75,4.85-9,7.28-15.75,7.28-2.8,0-5.34-.48-7.61-1.43-2.28-.95-4.2-2.26-5.78-3.94-1.57-1.67-2.79-3.65-3.64-5.92-.85-2.27-1.28-4.74-1.28-7.39s.46-5.11,1.39-7.39c.92-2.28,2.2-4.25,3.83-5.93,1.62-1.67,3.56-2.99,5.81-3.94,2.25-.95,4.7-1.42,7.35-1.42,3.15,0,5.81.55,7.99,1.65,2.17,1.1,3.96,2.54,5.36,4.31,1.4,1.78,2.41,3.78,3.04,6,.62,2.23.94,4.49.94,6.79v2.4h-28.5ZM254,1204.97c-.05-1.5-.29-2.87-.71-4.12-.42-1.25-1.06-2.34-1.91-3.26-.85-.92-1.91-1.65-3.19-2.17-1.28-.52-2.76-.79-4.46-.79s-3.16.31-4.54.94c-1.38.63-2.54,1.44-3.49,2.44-.95,1-1.69,2.11-2.21,3.34-.52,1.23-.79,2.44-.79,3.64h21.3Z"/>
    <path d="M266.53,1190.12h6.75v5.47h.15c.45-.95,1.05-1.81,1.8-2.59s1.59-1.44,2.51-1.99c.92-.55,1.94-.99,3.04-1.31,1.1-.32,2.2-.49,3.3-.49s2.1.15,3,.45l-.3,7.28c-.55-.15-1.1-.27-1.65-.38-.55-.1-1.1-.15-1.65-.15-3.3,0-5.83.93-7.58,2.78s-2.62,4.72-2.62,8.62v17.85h-6.75v-35.55Z"/>
    <path d="M291.65,1194.47c1.9-1.75,4.1-3.06,6.6-3.94,2.5-.87,5-1.31,7.5-1.31s4.84.33,6.71.98c1.88.65,3.41,1.53,4.61,2.62s2.09,2.36,2.66,3.79c.57,1.42.86,2.91.86,4.46v18.15c0,1.25.02,2.4.08,3.45.05,1.05.12,2.05.22,3h-6c-.15-1.8-.22-3.6-.22-5.4h-.15c-1.5,2.3-3.28,3.93-5.33,4.88-2.05.95-4.42,1.43-7.12,1.43-1.65,0-3.22-.23-4.72-.68-1.5-.45-2.81-1.12-3.94-2.02-1.12-.9-2.01-2.01-2.66-3.34-.65-1.32-.97-2.86-.97-4.61,0-2.3.51-4.22,1.54-5.78,1.02-1.55,2.42-2.81,4.2-3.79,1.77-.97,3.85-1.67,6.23-2.1,2.37-.42,4.91-.64,7.61-.64h4.95v-1.5c0-.9-.18-1.8-.53-2.7-.35-.9-.88-1.71-1.58-2.44-.7-.72-1.58-1.3-2.62-1.72s-2.3-.64-3.75-.64c-1.3,0-2.44.12-3.41.38-.98.25-1.86.56-2.66.94s-1.53.81-2.17,1.31c-.65.5-1.27.97-1.88,1.42l-4.05-4.2ZM310.7,1208.57c-1.6,0-3.24.09-4.91.26-1.68.18-3.2.51-4.58,1.01-1.38.5-2.5,1.2-3.38,2.1-.88.9-1.31,2.05-1.31,3.45,0,2.05.69,3.53,2.06,4.43,1.38.9,3.24,1.35,5.59,1.35,1.85,0,3.42-.31,4.72-.94,1.3-.62,2.35-1.44,3.15-2.44.8-1,1.37-2.11,1.72-3.34.35-1.22.53-2.44.53-3.64v-2.25h-3.6Z"/>
    <path d="M353.08,1199.57c-1.25-1.3-2.56-2.29-3.94-2.96-1.38-.67-3.01-1.01-4.91-1.01s-3.46.34-4.84,1.01c-1.38.67-2.53,1.6-3.45,2.78-.93,1.17-1.63,2.53-2.1,4.05-.48,1.53-.71,3.11-.71,4.76s.27,3.21.83,4.69c.55,1.47,1.32,2.76,2.32,3.86,1,1.1,2.2,1.96,3.6,2.59,1.4.63,2.97.94,4.72.94,1.9,0,3.53-.34,4.88-1.01,1.35-.68,2.6-1.66,3.75-2.96l4.8,4.8c-1.75,1.95-3.79,3.35-6.11,4.2s-4.79,1.28-7.39,1.28c-2.75,0-5.26-.45-7.54-1.35-2.28-.9-4.24-2.16-5.89-3.79-1.65-1.62-2.92-3.57-3.83-5.85-.9-2.27-1.35-4.79-1.35-7.54s.45-5.27,1.35-7.58c.9-2.3,2.16-4.27,3.79-5.92,1.62-1.65,3.57-2.94,5.85-3.86,2.27-.92,4.81-1.39,7.61-1.39,2.6,0,5.09.46,7.46,1.39,2.37.93,4.44,2.34,6.19,4.24l-5.1,4.65Z"/>
    <path d="M380.08,1195.97h-9.68v16.12c0,1,.03,1.99.08,2.96.05.97.24,1.85.56,2.62.33.78.83,1.4,1.5,1.88.67.48,1.66.71,2.96.71.8,0,1.62-.07,2.47-.22.85-.15,1.62-.42,2.33-.83v6.15c-.8.45-1.84.76-3.11.94-1.28.17-2.26.26-2.96.26-2.6,0-4.61-.36-6.04-1.09s-2.48-1.66-3.15-2.81c-.67-1.15-1.08-2.44-1.2-3.86s-.19-2.86-.19-4.31v-18.53h-7.8v-5.85h7.8v-9.98h6.75v9.98h9.68v5.85Z"/>
    <path d="M384.95,1177.37c0-1.35.49-2.51,1.46-3.49.97-.98,2.14-1.46,3.49-1.46s2.51.49,3.49,1.46c.98.97,1.46,2.14,1.46,3.49s-.49,2.51-1.46,3.49c-.97.97-2.14,1.46-3.49,1.46s-2.51-.49-3.49-1.46c-.98-.97-1.46-2.14-1.46-3.49ZM386.53,1190.12h6.75v35.55h-6.75v-35.55Z"/>
    <path d="M396.95,1190.12h7.8l10.65,27.22,10.2-27.22h7.2l-13.95,35.55h-7.42l-14.47-35.55Z"/>
    <path d="M441.05,1210.37c0,1.55.34,2.96,1.01,4.24.67,1.28,1.56,2.36,2.66,3.26,1.1.9,2.37,1.6,3.83,2.1,1.45.5,2.95.75,4.5.75,2.1,0,3.92-.49,5.47-1.46,1.55-.98,2.97-2.26,4.28-3.86l5.1,3.9c-3.75,4.85-9,7.28-15.75,7.28-2.8,0-5.34-.48-7.61-1.43-2.28-.95-4.2-2.26-5.78-3.94-1.57-1.67-2.79-3.65-3.64-5.92-.85-2.27-1.28-4.74-1.28-7.39s.46-5.11,1.39-7.39c.92-2.28,2.2-4.25,3.83-5.93,1.62-1.67,3.56-2.99,5.81-3.94,2.25-.95,4.7-1.42,7.35-1.42,3.15,0,5.81.55,7.99,1.65,2.17,1.1,3.96,2.54,5.36,4.31,1.4,1.78,2.41,3.78,3.04,6,.62,2.23.94,4.49.94,6.79v2.4h-28.5ZM462.35,1204.97c-.05-1.5-.29-2.87-.71-4.12-.42-1.25-1.06-2.34-1.91-3.26-.85-.92-1.91-1.65-3.19-2.17-1.28-.52-2.76-.79-4.46-.79s-3.16.31-4.54.94c-1.38.63-2.54,1.44-3.49,2.44-.95,1-1.69,2.11-2.21,3.34-.52,1.23-.79,2.44-.79,3.64h21.3Z"/>
    <path d="M511.32,1172.57h6.53l22.72,53.1h-8.4l-5.33-13.12h-25.28l-5.25,13.12h-8.4l23.4-53.1ZM524.22,1206.24l-9.9-24.38h-.15l-10.05,24.38h20.1Z"/>
    <path d="M542.97,1190.12h6.75v5.47h.15c.85-1.9,2.33-3.44,4.42-4.61,2.1-1.17,4.52-1.76,7.28-1.76,1.7,0,3.34.26,4.91.79,1.58.52,2.95,1.34,4.12,2.44s2.11,2.51,2.81,4.24c.7,1.72,1.05,3.76,1.05,6.11v22.88h-6.75v-21c0-1.65-.22-3.06-.67-4.24s-1.05-2.12-1.8-2.85c-.75-.72-1.61-1.25-2.59-1.57-.97-.33-1.99-.49-3.04-.49-1.4,0-2.7.23-3.9.68-1.2.45-2.25,1.16-3.15,2.14-.9.98-1.6,2.21-2.1,3.71s-.75,3.28-.75,5.33v18.3h-6.75v-35.55Z"/>
    <path d="M582.05,1194.47c1.9-1.75,4.1-3.06,6.6-3.94,2.5-.87,5-1.31,7.5-1.31s4.84.33,6.71.98c1.88.65,3.41,1.53,4.61,2.62s2.09,2.36,2.66,3.79c.57,1.42.86,2.91.86,4.46v18.15c0,1.25.02,2.4.08,3.45.05,1.05.12,2.05.22,3h-6c-.15-1.8-.22-3.6-.22-5.4h-.15c-1.5,2.3-3.28,3.93-5.33,4.88-2.05.95-4.42,1.43-7.12,1.43-1.65,0-3.22-.23-4.72-.68-1.5-.45-2.81-1.12-3.94-2.02-1.12-.9-2.01-2.01-2.66-3.34-.65-1.32-.97-2.86-.97-4.61,0-2.3.51-4.22,1.54-5.78,1.02-1.55,2.42-2.81,4.2-3.79,1.77-.97,3.85-1.67,6.23-2.1,2.37-.42,4.91-.64,7.61-.64h4.95v-1.5c0-.9-.18-1.8-.53-2.7-.35-.9-.88-1.71-1.58-2.44-.7-.72-1.58-1.3-2.62-1.72s-2.3-.64-3.75-.64c-1.3,0-2.44.12-3.41.38-.98.25-1.86.56-2.66.94s-1.53.81-2.17,1.31c-.65.5-1.27.97-1.88,1.42l-4.05-4.2ZM601.1,1208.57c-1.6,0-3.24.09-4.91.26-1.68.18-3.2.51-4.58,1.01-1.38.5-2.5,1.2-3.38,2.1-.88.9-1.31,2.05-1.31,3.45,0,2.05.69,3.53,2.06,4.43,1.38.9,3.24,1.35,5.59,1.35,1.85,0,3.42-.31,4.72-.94,1.3-.62,2.35-1.44,3.15-2.44.8-1,1.37-2.11,1.72-3.34.35-1.22.53-2.44.53-3.64v-2.25h-3.6Z"/>
    <path d="M618.57,1168.97h6.75v56.7h-6.75v-56.7Z"/>
    <path d="M629.07,1190.12h7.8l10.53,27.75h.15l10.1-27.75h7.2l-16.88,43.2c-.6,1.55-1.22,2.96-1.87,4.24-.65,1.27-1.42,2.36-2.31,3.26-.9.9-1.98,1.6-3.25,2.1-1.27.5-2.83.75-4.67.75-1,0-2-.06-3.03-.19-1.02-.12-2-.39-2.95-.79l.82-6.15c1.34.55,2.68.83,4.02.83,1.04,0,1.92-.14,2.65-.41.72-.28,1.34-.67,1.86-1.2.52-.53.96-1.14,1.3-1.84.35-.7.7-1.5,1.04-2.4l2.19-5.62-14.71-35.77Z"/>
    <path d="M686.9,1199.04c-.8-1-1.79-1.84-2.96-2.51s-2.61-1.01-4.31-1.01c-1.6,0-2.99.34-4.16,1.01-1.18.67-1.76,1.66-1.76,2.96,0,1.05.34,1.9,1.01,2.55.67.65,1.47,1.18,2.4,1.58.92.4,1.91.7,2.96.9,1.05.2,1.95.38,2.7.53,1.45.35,2.81.78,4.09,1.28,1.27.5,2.37,1.15,3.3,1.95.92.8,1.65,1.78,2.17,2.93s.79,2.55.79,4.2c0,2-.42,3.71-1.27,5.14-.85,1.42-1.95,2.59-3.3,3.49-1.35.9-2.89,1.55-4.61,1.95-1.72.4-3.46.6-5.21.6-2.95,0-5.54-.45-7.76-1.35-2.23-.9-4.21-2.55-5.96-4.95l5.1-4.2c1.1,1.1,2.33,2.08,3.67,2.92,1.35.85,3,1.27,4.95,1.27.85,0,1.71-.09,2.59-.26.88-.17,1.65-.45,2.33-.83s1.22-.85,1.65-1.42c.42-.57.64-1.24.64-1.99,0-1-.31-1.82-.94-2.47-.63-.65-1.38-1.16-2.25-1.54-.88-.38-1.8-.68-2.78-.9s-1.84-.41-2.59-.56c-1.45-.35-2.83-.75-4.12-1.2-1.3-.45-2.45-1.05-3.45-1.8-1-.75-1.8-1.7-2.4-2.85s-.9-2.58-.9-4.28c0-1.85.39-3.46,1.16-4.84.77-1.37,1.8-2.51,3.08-3.41,1.27-.9,2.72-1.58,4.35-2.03,1.62-.45,3.26-.67,4.91-.67,2.4,0,4.7.45,6.9,1.35,2.2.9,3.95,2.4,5.25,4.5l-5.25,3.97Z"/>
    <path d="M697.47,1177.37c0-1.35.49-2.51,1.46-3.49.97-.98,2.14-1.46,3.49-1.46s2.51.49,3.49,1.46c.98.97,1.46,2.14,1.46,3.49s-.49,2.51-1.46,3.49c-.97.97-2.14,1.46-3.49,1.46s-2.51-.49-3.49-1.46c-.98-.97-1.46-2.14-1.46-3.49ZM699.05,1190.12h6.75v35.55h-6.75v-35.55Z"/>
    <path d="M732.65,1199.04c-.8-1-1.79-1.84-2.96-2.51s-2.61-1.01-4.31-1.01c-1.6,0-2.99.34-4.16,1.01-1.18.67-1.76,1.66-1.76,2.96,0,1.05.34,1.9,1.01,2.55.67.65,1.47,1.18,2.4,1.58.92.4,1.91.7,2.96.9,1.05.2,1.95.38,2.7.53,1.45.35,2.81.78,4.09,1.28,1.27.5,2.37,1.15,3.3,1.95.92.8,1.65,1.78,2.17,2.93s.79,2.55.79,4.2c0,2-.42,3.71-1.27,5.14-.85,1.42-1.95,2.59-3.3,3.49-1.35.9-2.89,1.55-4.61,1.95-1.72.4-3.46.6-5.21.6-2.95,0-5.54-.45-7.76-1.35-2.23-.9-4.21-2.55-5.96-4.95l5.1-4.2c1.1,1.1,2.33,2.08,3.67,2.92,1.35.85,3,1.27,4.95,1.27.85,0,1.71-.09,2.59-.26.88-.17,1.65-.45,2.33-.83s1.22-.85,1.65-1.42c.42-.57.64-1.24.64-1.99,0-1-.31-1.82-.94-2.47-.63-.65-1.38-1.16-2.25-1.54-.88-.38-1.8-.68-2.78-.9s-1.84-.41-2.59-.56c-1.45-.35-2.83-.75-4.12-1.2-1.3-.45-2.45-1.05-3.45-1.8-1-.75-1.8-1.7-2.4-2.85s-.9-2.58-.9-4.28c0-1.85.39-3.46,1.16-4.84.77-1.37,1.8-2.51,3.08-3.41,1.27-.9,2.72-1.58,4.35-2.03,1.62-.45,3.26-.67,4.91-.67,2.4,0,4.7.45,6.9,1.35,2.2.9,3.95,2.4,5.25,4.5l-5.25,3.97Z"/>
    <path d="M810.64,1225.67h-9.68l-6.52-7.05c-2.25,2.7-4.64,4.78-7.16,6.22-2.53,1.45-5.56,2.17-9.11,2.17-3,0-5.6-.44-7.8-1.31-2.2-.87-4.01-2.04-5.44-3.49-1.42-1.45-2.47-3.09-3.15-4.91-.67-1.83-1.01-3.71-1.01-5.66,0-1.85.32-3.54.97-5.06.65-1.52,1.52-2.91,2.62-4.16,1.1-1.25,2.39-2.37,3.86-3.38,1.47-1,3.01-1.88,4.61-2.62-1.7-1.8-3.16-3.65-4.39-5.55-1.23-1.9-1.84-4.15-1.84-6.75,0-2,.39-3.77,1.16-5.33.78-1.55,1.81-2.85,3.11-3.9,1.3-1.05,2.8-1.85,4.5-2.4,1.7-.55,3.5-.83,5.4-.83s3.61.25,5.29.75c1.67.5,3.14,1.25,4.39,2.25,1.25,1,2.24,2.25,2.96,3.75.72,1.5,1.09,3.25,1.09,5.25,0,1.65-.33,3.16-.98,4.54-.65,1.38-1.5,2.62-2.55,3.75s-2.23,2.13-3.53,3c-1.3.88-2.62,1.66-3.97,2.36l10.5,10.95,6.67-10.88h8.17l-10.27,15.9,12.08,12.38ZM777.34,1200.62c-1.05.6-2.11,1.25-3.19,1.95s-2.04,1.47-2.89,2.32-1.54,1.81-2.06,2.89c-.53,1.08-.79,2.29-.79,3.64s.27,2.51.83,3.64c.55,1.12,1.3,2.11,2.25,2.96.95.85,2.01,1.51,3.19,1.99,1.17.48,2.41.71,3.71.71s2.51-.2,3.64-.6c1.12-.4,2.18-.91,3.15-1.54.97-.62,1.88-1.34,2.7-2.14s1.59-1.62,2.29-2.48l-12.83-13.35ZM787.32,1183.67c0-1.75-.6-3.14-1.8-4.16-1.2-1.02-2.75-1.54-4.65-1.54s-3.55.54-4.95,1.61c-1.4,1.08-2.1,2.61-2.1,4.61,0,.9.16,1.75.49,2.55.32.8.75,1.58,1.28,2.33.52.75,1.09,1.45,1.69,2.1.6.65,1.2,1.28,1.8,1.88.9-.5,1.84-1.05,2.81-1.65.97-.6,1.86-1.27,2.66-2.02s1.46-1.59,1.99-2.51c.53-.92.79-1.99.79-3.19Z"/>
    <path d="M832.99,1172.57h10.73l16.88,40.2h.3l16.72-40.2h10.73v53.1h-7.2v-43.65h-.15l-17.92,43.65h-4.8l-17.92-43.65h-.15v43.65h-7.2v-53.1Z"/>
    <path d="M895.24,1207.89c0-2.6.49-5.02,1.46-7.27.97-2.25,2.31-4.22,4.01-5.92s3.7-3.04,6-4.01c2.3-.98,4.77-1.46,7.43-1.46s5.12.49,7.42,1.46c2.3.97,4.3,2.31,6,4.01,1.7,1.7,3.04,3.67,4.01,5.92.97,2.25,1.46,4.68,1.46,7.27s-.49,5.04-1.46,7.31c-.98,2.28-2.31,4.25-4.01,5.93-1.7,1.68-3.7,3-6,3.97-2.3.97-4.78,1.46-7.42,1.46s-5.13-.49-7.43-1.46-4.3-2.3-6-3.97c-1.7-1.67-3.04-3.65-4.01-5.93-.98-2.27-1.46-4.71-1.46-7.31ZM902.44,1207.89c0,1.8.27,3.46.83,4.99.55,1.53,1.32,2.83,2.32,3.9,1,1.08,2.22,1.93,3.68,2.55,1.45.63,3.07.94,4.88.94s3.42-.31,4.88-.94c1.45-.62,2.67-1.47,3.67-2.55,1-1.07,1.77-2.37,2.33-3.9.55-1.53.82-3.19.82-4.99s-.28-3.46-.82-4.99c-.55-1.52-1.33-2.82-2.33-3.9-1-1.08-2.23-1.92-3.67-2.55-1.45-.62-3.08-.94-4.88-.94s-3.43.31-4.88.94c-1.45.63-2.68,1.48-3.68,2.55s-1.78,2.38-2.32,3.9c-.55,1.53-.83,3.19-.83,4.99Z"/>
    <path d="M974.37,1225.67h-6.75v-5.1h-.15c-1.3,1.9-3.09,3.38-5.36,4.42-2.28,1.05-4.61,1.58-7.01,1.58-2.75,0-5.24-.48-7.46-1.43-2.23-.95-4.12-2.27-5.7-3.97-1.57-1.7-2.79-3.67-3.64-5.92-.85-2.25-1.28-4.7-1.28-7.35s.42-5.11,1.28-7.39c.85-2.28,2.06-4.25,3.64-5.93,1.58-1.67,3.47-2.99,5.7-3.94,2.22-.95,4.71-1.42,7.46-1.42,2.55,0,4.95.54,7.2,1.61,2.25,1.08,3.97,2.54,5.17,4.39h.15v-26.25h6.75v56.7ZM955.92,1220.27c1.8,0,3.42-.31,4.88-.94,1.45-.62,2.67-1.47,3.67-2.55,1-1.07,1.77-2.37,2.33-3.9.55-1.53.82-3.19.82-4.99s-.28-3.46-.82-4.99c-.55-1.52-1.33-2.82-2.33-3.9-1-1.08-2.23-1.92-3.67-2.55-1.45-.62-3.08-.94-4.88-.94s-3.43.31-4.88.94c-1.45.63-2.68,1.48-3.68,2.55s-1.78,2.38-2.32,3.9c-.55,1.53-.83,3.19-.83,4.99s.27,3.46.83,4.99c.55,1.53,1.32,2.83,2.32,3.9,1,1.08,2.22,1.93,3.68,2.55,1.45.63,3.07.94,4.88.94Z"/>
    <path d="M986.89,1210.37c0,1.55.34,2.96,1.01,4.24.67,1.28,1.56,2.36,2.66,3.26,1.1.9,2.37,1.6,3.83,2.1,1.45.5,2.95.75,4.5.75,2.1,0,3.92-.49,5.47-1.46,1.55-.98,2.97-2.26,4.28-3.86l5.1,3.9c-3.75,4.85-9,7.28-15.75,7.28-2.8,0-5.34-.48-7.61-1.43-2.28-.95-4.2-2.26-5.78-3.94-1.57-1.67-2.79-3.65-3.64-5.92-.85-2.27-1.28-4.74-1.28-7.39s.46-5.11,1.39-7.39c.92-2.28,2.2-4.25,3.83-5.93,1.62-1.67,3.56-2.99,5.81-3.94,2.25-.95,4.7-1.42,7.35-1.42,3.15,0,5.81.55,7.99,1.65,2.17,1.1,3.96,2.54,5.36,4.31,1.4,1.78,2.41,3.78,3.04,6,.62,2.23.94,4.49.94,6.79v2.4h-28.5ZM1008.19,1204.97c-.05-1.5-.29-2.87-.71-4.12-.42-1.25-1.06-2.34-1.91-3.26-.85-.92-1.91-1.65-3.19-2.17-1.28-.52-2.76-.79-4.46-.79s-3.16.31-4.54.94c-1.38.63-2.54,1.44-3.49,2.44-.95,1-1.69,2.11-2.21,3.34-.52,1.23-.79,2.44-.79,3.64h21.3Z"/>
    <path d="M1021.24,1168.97h6.75v56.7h-6.75v-56.7Z"/>
    <path d="M1036.46,1168.97h6.75v56.7h-6.75v-56.7Z"/>
    <path d="M1050.11,1177.37c0-1.35.49-2.51,1.46-3.49.97-.98,2.14-1.46,3.49-1.46s2.51.49,3.49,1.46c.98.97,1.46,2.14,1.46,3.49s-.49,2.51-1.46,3.49c-.97.97-2.14,1.46-3.49,1.46s-2.51-.49-3.49-1.46c-.98-.97-1.46-2.14-1.46-3.49ZM1051.69,1190.12h6.75v35.55h-6.75v-35.55Z"/>
    <path d="M1066.39,1190.12h6.75v5.47h.15c.85-1.9,2.33-3.44,4.42-4.61,2.1-1.17,4.52-1.76,7.28-1.76,1.7,0,3.34.26,4.91.79,1.58.52,2.95,1.34,4.12,2.44s2.11,2.51,2.81,4.24c.7,1.72,1.05,3.76,1.05,6.11v22.88h-6.75v-21c0-1.65-.22-3.06-.67-4.24s-1.05-2.12-1.8-2.85c-.75-.72-1.61-1.25-2.59-1.57-.97-.33-1.99-.49-3.04-.49-1.4,0-2.7.23-3.9.68-1.2.45-2.25,1.16-3.15,2.14-.9.98-1.6,2.21-2.1,3.71s-.75,3.28-.75,5.33v18.3h-6.75v-35.55Z"/>
    <path d="M1140.94,1225.37c0,2.7-.46,5.16-1.39,7.39-.93,2.22-2.24,4.15-3.94,5.77-1.7,1.62-3.75,2.89-6.15,3.79-2.4.9-5.05,1.35-7.95,1.35-3.4,0-6.51-.48-9.34-1.42-2.83-.95-5.51-2.6-8.06-4.95l4.57-5.7c1.75,1.9,3.65,3.34,5.7,4.31,2.05.98,4.38,1.46,6.98,1.46s4.57-.36,6.22-1.09c1.65-.73,2.96-1.66,3.94-2.81.97-1.15,1.66-2.46,2.06-3.94.4-1.48.6-2.96.6-4.46v-5.25h-.22c-1.3,2.15-3.06,3.74-5.29,4.76-2.23,1.03-4.56,1.54-7.01,1.54-2.6,0-5.01-.46-7.24-1.39-2.23-.92-4.14-2.2-5.74-3.83-1.6-1.62-2.85-3.55-3.75-5.77-.9-2.22-1.35-4.64-1.35-7.24s.42-5.04,1.28-7.31c.85-2.27,2.06-4.26,3.64-5.96,1.58-1.7,3.47-3.02,5.7-3.98,2.22-.95,4.71-1.42,7.46-1.42,2.4,0,4.74.53,7.01,1.58,2.27,1.05,4.06,2.53,5.36,4.42h.15v-5.1h6.75v35.25ZM1122.49,1195.52c-1.8,0-3.43.31-4.88.94-1.45.63-2.68,1.48-3.68,2.55s-1.78,2.38-2.32,3.9c-.55,1.53-.83,3.19-.83,4.99,0,3.6,1.05,6.49,3.15,8.66,2.1,2.17,4.95,3.26,8.55,3.26s6.45-1.09,8.55-3.26c2.1-2.17,3.15-5.06,3.15-8.66,0-1.8-.28-3.46-.82-4.99-.55-1.52-1.33-2.82-2.33-3.9-1-1.08-2.23-1.92-3.67-2.55-1.45-.62-3.08-.94-4.88-.94Z"/>
  </g>
</svg>