<?xml version="1.0" encoding="UTF-8"?>
<svg id="Layer_1" data-name="Layer 1" xmlns="http://www.w3.org/2000/svg" viewBox="0 0 1024 1024">
  <defs>
    <style>
      .cls-1 {
        fill: #65c2ea;
      }

      .cls-2 {
        fill: #26272f;
      }

      .cls-3 {
        fill: #fff;
      }

      .cls-4 {
        fill: #ce385d;
      }

      .cls-5 {
        fill: #4b1b4c;
      }
    </style>
  </defs>
  <rect class="cls-2" x="0" width="1024" height="1024" rx="180" ry="180"/>
  <g>
    <path class="cls-4" d="M869.41,487.92c-1.63,0-3.27-.48-4.77-1.47l-35.25-23.42-41.53,15.61c-2.36.89-4.93.68-7.16-.58l-36.05-20.32-56.87,13.14-10.07-20.06,66.35-15.34c2.06-.47,4.19-.16,6.08.9l35.47,20,41.9-15.74c2.58-.97,5.39-.63,7.73.93l32.01,21.26,24.94-34.16c3.21-4.4,8.82-5.2,12.87-1.85l34.03,28.15,40.35-4.46c5.24-.58,9.9,3.84,10.41,9.87.5,6.03-3.34,11.39-8.58,11.97l-43.92,4.86c-2.3.25-4.61-.46-6.48-2.01l-29.76-24.62-24.39,33.41c-1.87,2.56-4.57,3.92-7.31,3.92Z"/>
    <path class="cls-1" d="M980.31,564.55c-.15,0-.29,0-.44-.01l-44.3-2.29c-2.3-.12-4.49-1.18-6.16-2.99l-27.12-29.28-27.75,29.11c-3.45,3.62-8.67,3.87-12.37.59l-32.73-28.98-43.06,8.77c-2.45.5-4.98-.11-7.04-1.7l-33.84-26.03-35.93,2.38-10.75-21.27,48.8-3.23c2.09-.14,4.17.51,5.92,1.85l33.3,25.61,43.43-8.84c2.67-.54,5.42.23,7.57,2.13l29.69,26.3,28.37-29.76c3.71-3.89,9.43-3.85,13.09.11l31.02,33.5,40.74,2.1c5.3.27,9.4,5.4,9.16,11.46-.23,5.89-4.48,10.48-9.58,10.48Z"/>
    <path class="cls-5" d="M980.31,653.68c-.53,0-1.08-.05-1.62-.16l-44.77-8.7c-2.2-.43-4.2-1.72-5.66-3.64l-25.33-33.48-30.77,25.11c-3.76,3.07-8.89,2.64-12.22-1l-30.95-33.83-44.65,2.51c-2.43.13-4.8-.78-6.65-2.56l-32.3-30.98-9.69-.75-11.57-22.89,25.69,1.99c2.03.16,3.97,1.05,5.53,2.55l31.81,30.52,45.01-2.53c2.63-.15,5.21.95,7.11,3.03l28.19,30.81,31.43-25.64c4.04-3.3,9.61-2.53,12.85,1.75l28.8,38.07,41.37,8.04c5.23,1.02,8.75,6.68,7.86,12.66-.8,5.35-4.86,9.13-9.46,9.14Z"/>
    <polygon class="cls-4" points="330.05 488.24 323.35 499.88 690.81 482.56 668.92 445.04 330.05 488.24"/>
    <polygon class="cls-1" points="323.35 499.88 317.73 509.61 718.16 530.15 690.81 482.56 323.35 499.88"/>
    <polygon class="cls-5" points="317.71 509.61 311.02 521.25 746.4 579.29 718.16 530.15 317.71 509.61"/>
    <path class="cls-3" d="M510.19,204.54l319.82,553.94H190.37L510.19,204.54M510.19,180c-6.52,0-13.04,3.23-16.76,9.68L169.12,751.39c-7.45,12.91,1.86,29.04,16.77,29.04h648.6c14.9,0,24.22-16.13,16.77-29.04L526.95,189.68c-3.73-6.45-10.25-9.68-16.76-9.68h0Z"/>
    <path class="cls-3" d="M45.07,609.17c-4.55,0-8.8-2.85-10.37-7.39-1.98-5.73,1.06-11.98,6.79-13.95l291.1-100.56-16.74,29-267.19,92.3c-1.19.41-2.39.6-3.58.6Z"/>
  </g>
</svg>