<?xml version="1.0" encoding="UTF-8"?>
<svg id="Layer_1" xmlns="http://www.w3.org/2000/svg" version="1.1" viewBox="0 0 1363.75 1567.85">
  <!-- Generator: Adobe Illustrator 29.5.1, SVG Export Plug-In . SVG Version: 2.1.0 Build 141)  -->
  <defs>
    <style>
      .st0 {
        fill: #520b4e;
      }

      .st1 {
        fill: #df1f5a;
      }

      .st2 {
        fill: #fff;
      }

      .st3 {
        fill: #33c5f0;
      }
    </style>
  </defs>
  <g>
    <path class="st2" d="M24.53,968.55c0-2.52.5-3.53,2.52-3.53,19.15-1.01,53.43-1.51,87.7-1.51,92.74,0,129.53,51.91,129.53,107.86,0,78.63-59.98,113.4-133.56,113.4h-29.74v105.84c0,2.52-1.01,3.53-4.03,3.53H27.55c-2.02,0-3.02-1.01-3.02-3.53v-322.06ZM80.98,1134.37c8.06.5,14.62.5,29.74.5,41.83,0,77.11-15.12,77.11-61.99,0-37.8-26.21-59.98-71.57-59.98-16.13,0-29.74,1.01-35.28,1.51v119.96Z"/>
    <path class="st2" d="M312.82,1294.14c-3.02,0-3.53-1.01-3.53-4.03v-321.06c0-2.02.5-4.03,3.02-4.03,33.77-1.01,55.95-1.51,93.75-1.51,77.11,0,123.48,34.27,123.48,97.78,0,44.35-28.73,74.59-63.51,87.7,16.13,23.19,74.59,113.4,89.21,140.12,1.51,2.52,2.02,5.04-1.01,5.04h-57.96c-4.03,0-5.04-1.01-6.55-2.52-14.11-23.18-48.89-81.65-71.07-117.94-3.53-6.05-6.05-8.57-11.59-8.57h-42.34v125.5c0,2.52-1.01,3.53-3.53,3.53h-48.39ZM407.07,1116.22c41.33,0,65.52-19.66,65.52-51.91,0-34.27-25.7-51.41-68.55-51.41-16.13,0-31.25,1.01-39.31,1.51v101.81h42.34Z"/>
    <path class="st2" d="M664.11,1290.11c0,3.02-1.01,4.03-3.53,4.03h-49.39c-3.02,0-3.53-1.01-3.53-4.03v-322.06c0-3.02,1.01-3.53,3.53-3.53h49.39c2.52,0,3.53,1.01,3.53,3.53v322.06Z"/>
    <path class="st2" d="M741.73,1281.54c-2.52-1.51-3.53-3.53-3.53-7.06v-48.89c0-2.52,2.02-3.53,4.03-2.02,25.71,16.63,56.45,24.7,84.67,24.7,40.83,0,57.96-17.14,57.96-39.82,0-19.15-11.59-33.77-49.9-51.41l-22.18-10.08c-58.97-26.71-74.09-57.46-74.09-94.75,0-52.42,38.81-92.74,111.39-92.74,31.25,0,57.46,4.54,73.08,12.6,2.02,1.01,2.52,3.02,2.52,6.05v45.87c0,2.02-1.51,4.03-4.03,2.02-18.14-10.58-44.35-16.13-71.57-16.13-42.84,0-56.45,19.66-56.45,37.8s11.09,32.26,49.9,49.9l18.65,8.06c62.5,28.22,80.14,59.47,80.14,97.78,0,57.46-44.35,95.26-116.93,95.26-34.27,0-64.01-6.05-83.67-17.14Z"/>
    <path class="st2" d="M1026.49,964.52h75.1c3.02,0,3.53.5,4.54,3.02,14.62,49.9,57.96,201.61,67.54,248.98h.5c10.58-43.34,59.98-197.57,75.1-248.48.5-2.52,1.51-3.53,4.03-3.53h73.08c2.52,0,3.02.5,3.53,3.02l13.61,322.57c.5,3.02-1.01,4.03-3.53,4.03h-51.41c-2.52,0-3.53-.5-3.53-3.53-3.02-108.36-4.03-253.52-3.53-283.76h-1.01c-10.58,46.37-61.49,215.21-81.65,283.76-.5,3.02-2.52,3.53-4.54,3.53h-46.87c-3.02,0-4.03-.5-4.54-3.53-21.17-76.61-60.99-225.8-74.59-284.26h-1.01c0,46.87-5.04,177.41-9.58,284.26,0,3.02-1.01,3.53-4.03,3.53h-46.37c-3.02,0-4.03-.5-3.53-3.53l19.15-323.07c0-3.02,1.51-3.02,3.53-3.02Z"/>
  </g>
  <g>
    <path class="st1" d="M1178.11,448.08c-2.24,0-4.49-.66-6.55-2.04l-48.42-32.39-57.05,21.59c-3.24,1.23-6.77.94-9.83-.8l-49.51-28.11-78.11,18.18-13.83-27.74,91.13-21.21c2.83-.66,5.76-.22,8.35,1.25l48.72,27.66,57.55-21.78c3.54-1.34,7.4-.87,10.62,1.28l43.97,29.41,34.25-47.25c4.41-6.08,12.12-7.2,17.68-2.56l46.75,38.94,55.42-6.17c7.2-.8,13.6,5.31,14.3,13.66.69,8.34-4.58,15.76-11.79,16.56l-60.32,6.72c-3.16.35-6.33-.64-8.9-2.79l-40.88-34.05-33.5,46.22c-2.56,3.54-6.27,5.42-10.04,5.42Z"/>
    <path class="st3" d="M1330.43,554.09c-.2,0-.4,0-.61-.02l-60.85-3.16c-3.16-.16-6.16-1.63-8.46-4.13l-37.25-40.51-38.12,40.27c-4.74,5-11.91,5.35-17,.82l-44.96-40.09-59.14,12.13c-3.37.69-6.84-.15-9.68-2.35l-46.48-36-49.35,3.29-14.76-29.42,67.03-4.46c2.88-.19,5.73.71,8.12,2.56l45.74,35.43,59.65-12.23c3.67-.75,7.44.32,10.39,2.95l40.79,36.38,38.97-41.17c5.1-5.39,12.95-5.32,17.98.15l42.61,46.34,55.95,2.91c7.28.38,12.91,7.47,12.58,15.85-.32,8.14-6.15,14.49-13.16,14.49Z"/>
    <path class="st0" d="M1330.43,677.37c-.73,0-1.48-.07-2.23-.22l-61.5-12.03c-3.02-.59-5.77-2.37-7.77-5.04l-34.79-46.31-42.27,34.73c-5.16,4.24-12.21,3.66-16.79-1.38l-42.51-46.79-61.32,3.47c-3.33.19-6.59-1.08-9.13-3.54l-44.36-42.86-13.31-1.04-15.89-31.66,35.28,2.75c2.79.22,5.45,1.45,7.59,3.52l43.69,42.22,61.82-3.5c3.61-.2,7.15,1.31,9.77,4.19l38.72,42.61,43.16-35.47c5.55-4.56,13.2-3.51,17.65,2.43l39.55,52.66,56.82,11.12c7.18,1.41,12.02,9.24,10.8,17.51-1.09,7.4-6.68,12.64-12.99,12.64Z"/>
    <polygon class="st1" points="433.9 448.53 424.64 464.63 932.92 440.67 902.65 388.77 433.9 448.53"/>
    <polygon class="st3" points="424.64 464.63 416.87 478.09 970.76 506.5 932.92 440.67 424.64 464.63"/>
    <polygon class="st0" points="416.84 478.09 407.58 494.19 1009.83 574.48 970.76 506.5 416.84 478.09"/>
    <path class="st2" d="M683.08,56.1l442.39,766.25H240.69L683.08,56.1M683.08,22.16c-9.02,0-18.04,4.46-23.19,13.39L211.3,812.53c-10.31,17.85,2.58,40.17,23.19,40.17h897.18c20.61,0,33.5-22.31,23.19-40.17L706.27,35.55c-5.15-8.93-14.17-13.39-23.19-13.39h0Z"/>
    <path class="st2" d="M39.71,615.81c-6.29,0-12.18-3.94-14.35-10.23-2.74-7.92,1.47-16.57,9.39-19.3l402.66-139.1-23.16,40.12-369.59,127.67c-1.64.57-3.31.84-4.96.84Z"/>
  </g>
  <g>
    <path class="st2" d="M46.2,1374.23h20c2.17,0,4.27.21,6.29.62,2.02.55,4.06,1.67,6.14,3.36,1.74,1.28,3.15,3.1,4.23,5.47,1.13,2.29,1.7,5,1.7,8.12,0,4.22-1.44,8.06-4.32,11.52-2.95,3.65-7.27,5.52-12.95,5.62h-12.73v22.23h-8.35v-56.95ZM54.55,1400.84h12.4c3.11-.05,5.45-1.05,7.01-2.98,1.49-1.88,2.24-3.98,2.24-6.28,0-1.91-.3-3.52-.91-4.83-.63-1.18-1.52-2.11-2.65-2.79-1.72-1.12-3.72-1.66-5.99-1.61h-12.09v18.48Z"/>
    <path class="st2" d="M111.55,1427.6h-.15c-.73,1.38-1.87,2.39-3.4,3.05-1.51.68-3.61,1.01-6.28,1.01-4.39-.05-7.77-1.25-10.13-3.59-2.5-2.29-3.74-5.22-3.74-8.79s1.08-6.24,3.25-8.48c2.17-2.29,5.34-3.46,9.53-3.51h10.93v-4.28c.05-3.58-2.63-5.32-8.06-5.22-1.97,0-3.52.21-4.65.63-1.19.5-2.12,1.33-2.8,2.51l-6.21-4.89c3-4.04,7.42-6.01,13.27-5.9,4.94-.05,8.88.91,11.83,2.89,2.95,2.03,4.45,5.52,4.5,10.47v27.7h-7.88v-3.59ZM111.55,1414h-9.47c-4.6.1-6.87,1.73-6.82,4.89,0,1.38.59,2.55,1.78,3.52,1.14,1.07,3.02,1.6,5.65,1.6,3.31.05,5.65-.35,7.01-1.21,1.24-.86,1.86-2.81,1.86-5.86v-2.93Z"/>
    <path class="st2" d="M130.93,1374.23h7.88v46.52c0,1.85.99,2.78,2.96,2.78h2.73v7.65h-3.52c-2.87,0-5.24-.74-7.11-2.22-1.97-1.5-2.95-4.03-2.95-7.59v-47.15Z"/>
    <path class="st2" d="M172.18,1427.6h-.15c-.73,1.38-1.87,2.39-3.4,3.05-1.51.68-3.61,1.01-6.28,1.01-4.39-.05-7.77-1.25-10.13-3.59-2.5-2.29-3.74-5.22-3.74-8.79s1.08-6.24,3.25-8.48c2.17-2.29,5.34-3.46,9.53-3.51h10.93v-4.28c.05-3.58-2.63-5.32-8.06-5.22-1.97,0-3.52.21-4.65.63-1.19.5-2.12,1.33-2.8,2.51l-6.21-4.89c3-4.04,7.42-6.01,13.27-5.9,4.94-.05,8.88.91,11.83,2.89,2.95,2.03,4.45,5.52,4.5,10.47v27.7h-7.88v-3.59ZM172.18,1414h-9.47c-4.6.1-6.87,1.73-6.82,4.89,0,1.38.59,2.55,1.78,3.52,1.14,1.07,3.02,1.6,5.65,1.6,3.31.05,5.65-.35,7.01-1.21,1.24-.86,1.86-2.81,1.86-5.86v-2.93Z"/>
    <path class="st2" d="M197.48,1414c0,3.26.91,5.73,2.73,7.43,1.69,1.72,3.91,2.58,6.66,2.58,3.21,0,6.07-1.32,8.59-3.95l5.72,5.04c-4.01,4.42-8.73,6.61-14.15,6.56-2.07,0-4.09-.31-6.05-.94-.98-.34-1.94-.79-2.87-1.37-.98-.49-1.9-1.11-2.76-1.84-1.66-1.51-3.01-3.62-4.05-6.33-1.14-2.6-1.7-5.99-1.7-10.16s.49-7.34,1.48-10c.98-2.71,2.24-4.84,3.78-6.41,1.56-1.59,3.32-2.73,5.26-3.44,1.92-.7,3.81-1.05,5.67-1.05,4.49.05,8.28,1.58,11.38,4.57,3.15,3.05,4.75,7.24,4.8,12.58v6.71h-24.49ZM214.09,1407.28c-.1-3.17-.92-5.56-2.46-7.18-1.52-1.54-3.46-2.32-5.84-2.32s-4.32.77-5.84,2.32c-1.49,1.62-2.31,4.02-2.46,7.18h16.61Z"/>
    <path class="st2" d="M229.6,1410.87c0-4.28.34-7.57,1.02-9.86.71-2.24,1.79-4.13,3.25-5.67,1.08-1.35,2.6-2.55,4.54-3.61,1.92-1.01,4.38-1.54,7.38-1.59,3.1.05,5.61.59,7.53,1.6,1.89,1.07,3.35,2.28,4.39,3.63,1.56,1.54,2.66,3.42,3.32,5.66.63,2.29.94,5.57.94,9.84s-.32,7.53-.95,9.77c-.66,2.24-1.77,4.18-3.33,5.82-.5.6-1.12,1.19-1.85,1.76-.66.65-1.5,1.21-2.53,1.68-1.92,1.12-4.43,1.71-7.53,1.76-3-.05-5.46-.64-7.38-1.76-1.94-1.02-3.45-2.16-4.54-3.44-1.46-1.64-2.55-3.58-3.25-5.82-.68-2.24-1.02-5.49-1.02-9.77ZM254.09,1410.95c0-2.9-.13-5.02-.38-6.35-.25-1.28-.77-2.4-1.56-3.37-.58-.91-1.44-1.63-2.58-2.16-1.09-.55-2.35-.82-3.79-.82-1.34,0-2.58.28-3.72.82-1.09.52-1.97,1.24-2.65,2.16-.68.97-1.18,2.09-1.48,3.37-.3,1.33-.46,3.42-.46,6.27s.15,4.89.46,6.19c.3,1.33.8,2.51,1.48,3.53.68.78,1.57,1.48,2.65,2.08,1.14.57,2.38.86,3.72.86,1.44,0,2.7-.29,3.79-.86,1.14-.6,2-1.29,2.58-2.08.78-1.02,1.3-2.2,1.56-3.53.25-1.31.38-3.34.38-6.11Z"/>
    <path class="st2" d="M300.46,1424.66c-1.72,2.02-3.73,3.67-6.06,4.93-2.32,1.32-5.01,2.01-8.06,2.06-4.63,0-8.7-1.63-12.2-4.88-3.63-3.25-5.49-8.53-5.59-15.82.1-7.37,1.97-12.71,5.6-16.02,3.5-3.25,7.57-4.86,12.21-4.8,3.05.05,5.73.7,8.05,1.95,2.32,1.27,4.34,2.97,6.05,5.11l-5.83,5.34c-1.99-2.74-4.65-4.17-7.98-4.27-6.71-.1-10.12,4.13-10.22,12.7.1,8.52,3.51,12.71,10.22,12.58,3.33-.05,5.99-1.46,7.98-4.23l5.83,5.36Z"/>
    <path class="st2" d="M307.06,1374.23h7.88v46.52c0,1.85.99,2.78,2.96,2.78h2.73v7.65h-3.52c-2.87,0-5.24-.74-7.11-2.22-1.97-1.5-2.95-4.03-2.95-7.59v-47.15Z"/>
    <path class="st2" d="M327.92,1374.23h7.88v8.12h-7.88v-8.12ZM327.92,1390.64h7.88v40.55h-7.88v-40.55Z"/>
    <path class="st2" d="M346.55,1390.64h7.9v4.3h.15c2.68-3.2,6.21-4.8,10.59-4.8,2.81.05,5.08.53,6.8,1.45,1.69,1.02,3.24,2.3,4.65,3.87,3.18-3.59,7.44-5.36,12.77-5.31,3.36,0,6.43,1.19,9.22,3.55,2.76,2.4,4.19,5.91,4.3,10.55v26.95h-7.89v-24.17c0-2.84-.76-5.01-2.27-6.49-1.51-1.51-3.46-2.27-5.84-2.27s-4.35.76-5.88,2.27c-1.56,1.49-2.35,3.65-2.35,6.49v24.17h-7.88v-24.17c0-2.84-.76-5.01-2.27-6.49-1.54-1.51-3.5-2.27-5.88-2.27s-4.33.76-5.84,2.27c-1.59,1.49-2.38,3.65-2.38,6.49v24.17h-7.89v-40.55Z"/>
    <path class="st2" d="M435.65,1427.6h-.15c-.73,1.38-1.87,2.39-3.4,3.05-1.51.68-3.61,1.01-6.28,1.01-4.39-.05-7.77-1.25-10.13-3.59-2.5-2.29-3.74-5.22-3.74-8.79s1.08-6.24,3.25-8.48c2.17-2.29,5.34-3.46,9.53-3.51h10.93v-4.28c.05-3.58-2.63-5.32-8.06-5.22-1.97,0-3.52.21-4.65.63-1.19.5-2.12,1.33-2.8,2.51l-6.21-4.89c3-4.04,7.42-6.01,13.27-5.9,4.94-.05,8.88.91,11.83,2.89,2.95,2.03,4.45,5.52,4.5,10.47v27.7h-7.88v-3.59ZM435.65,1414h-9.47c-4.6.1-6.87,1.73-6.82,4.89,0,1.38.59,2.55,1.78,3.52,1.14,1.07,3.02,1.6,5.65,1.6,3.31.05,5.65-.35,7.01-1.21,1.24-.86,1.86-2.81,1.86-5.86v-2.93Z"/>
    <path class="st2" d="M455.5,1378.3h7.88v12.34h5.75v6.25h-5.75v23.64c-.05,2.06.88,3.06,2.8,3.01h2.95v7.65h-4.12c-2.77,0-5.04-.88-6.8-2.65-1.81-1.69-2.72-4.13-2.72-7.33v-24.31h-3.96v-6.25h3.96v-12.34Z"/>
    <path class="st2" d="M477.49,1374.23h7.88v8.12h-7.88v-8.12ZM477.49,1390.64h7.88v40.55h-7.88v-40.55Z"/>
    <path class="st2" d="M525.34,1424.66c-1.72,2.02-3.73,3.67-6.06,4.93-2.32,1.32-5.01,2.01-8.06,2.06-4.63,0-8.7-1.63-12.2-4.88-3.63-3.25-5.49-8.53-5.59-15.82.1-7.37,1.97-12.71,5.6-16.02,3.5-3.25,7.57-4.86,12.21-4.8,3.05.05,5.73.7,8.05,1.95,2.32,1.27,4.34,2.97,6.05,5.11l-5.83,5.34c-1.99-2.74-4.65-4.17-7.98-4.27-6.71-.1-10.12,4.13-10.22,12.7.1,8.52,3.51,12.71,10.22,12.58,3.33-.05,5.99-1.46,7.98-4.23l5.83,5.36Z"/>
    <path class="st2" d="M551.83,1374.23h21.55c4.6,0,8.35,1.25,11.25,3.75,3.5,2.84,5.32,6.89,5.47,12.15-.1,7.73-3.65,13-10.65,15.78l12.77,25.27h-9.92l-11.42-24.34h-10.7v24.34h-8.35v-56.95ZM560.18,1399.2h12.67c3.14-.05,5.49-.99,7.06-2.82,1.54-1.7,2.31-3.79,2.31-6.27-.05-2.98-.97-5.13-2.77-6.46-1.42-1.17-3.46-1.76-6.15-1.76h-13.12v17.31Z"/>
    <path class="st2" d="M605.84,1414c0,3.26.91,5.73,2.73,7.43,1.69,1.72,3.91,2.58,6.66,2.58,3.21,0,6.07-1.32,8.59-3.95l5.72,5.04c-4.01,4.42-8.73,6.61-14.15,6.56-2.07,0-4.09-.31-6.05-.94-.98-.34-1.94-.79-2.87-1.37-.98-.49-1.9-1.11-2.76-1.84-1.66-1.51-3.01-3.62-4.05-6.33-1.14-2.6-1.7-5.99-1.7-10.16s.49-7.34,1.48-10c.98-2.71,2.24-4.84,3.78-6.41,1.56-1.59,3.32-2.73,5.26-3.44,1.92-.7,3.81-1.05,5.67-1.05,4.49.05,8.28,1.58,11.38,4.57,3.15,3.05,4.75,7.24,4.8,12.58v6.71h-24.49ZM622.45,1407.28c-.1-3.17-.92-5.56-2.46-7.18-1.52-1.54-3.46-2.32-5.84-2.32s-4.32.77-5.84,2.32c-1.49,1.62-2.31,4.02-2.46,7.18h16.61Z"/>
    <path class="st2" d="M668.82,1424.66c-1.71,2.02-3.73,3.67-6.06,4.93-2.32,1.32-5.01,2.01-8.06,2.06-4.63,0-8.7-1.63-12.2-4.88-3.63-3.25-5.49-8.53-5.59-15.82.1-7.37,1.97-12.71,5.6-16.02,3.5-3.25,7.57-4.86,12.21-4.8,3.05.05,5.73.7,8.05,1.95,2.32,1.27,4.34,2.97,6.05,5.11l-5.83,5.34c-1.99-2.74-4.65-4.17-7.98-4.27-6.71-.1-10.12,4.13-10.22,12.7.1,8.52,3.51,12.71,10.22,12.58,3.33-.05,5.99-1.46,7.98-4.23l5.83,5.36Z"/>
    <path class="st2" d="M673.47,1410.87c0-4.28.34-7.57,1.02-9.86.71-2.24,1.79-4.13,3.25-5.67,1.08-1.35,2.6-2.55,4.54-3.61,1.92-1.01,4.38-1.54,7.38-1.59,3.1.05,5.61.59,7.53,1.6,1.89,1.07,3.35,2.28,4.39,3.63,1.56,1.54,2.67,3.42,3.32,5.66.63,2.29.94,5.57.94,9.84s-.32,7.53-.95,9.77c-.66,2.24-1.76,4.18-3.33,5.82-.5.6-1.12,1.19-1.85,1.76-.66.65-1.5,1.21-2.53,1.68-1.92,1.12-4.42,1.71-7.53,1.76-3-.05-5.46-.64-7.38-1.76-1.94-1.02-3.46-2.16-4.54-3.44-1.46-1.64-2.55-3.58-3.25-5.82-.68-2.24-1.02-5.49-1.02-9.77ZM697.96,1410.95c0-2.9-.13-5.02-.38-6.35-.25-1.28-.77-2.4-1.56-3.37-.58-.91-1.44-1.63-2.58-2.16-1.09-.55-2.35-.82-3.79-.82-1.34,0-2.58.28-3.72.82-1.09.52-1.97,1.24-2.65,2.16-.68.97-1.18,2.09-1.48,3.37-.3,1.33-.46,3.42-.46,6.27s.15,4.89.46,6.19c.3,1.33.8,2.51,1.48,3.53.68.78,1.57,1.48,2.65,2.08,1.14.57,2.38.86,3.72.86,1.44,0,2.7-.29,3.79-.86,1.14-.6,2-1.29,2.58-2.08.78-1.02,1.3-2.2,1.56-3.53.25-1.31.38-3.34.38-6.11Z"/>
    <path class="st2" d="M715.42,1390.64h7.88v4.3h.15c2.6-3.2,6-4.8,10.21-4.8,3.25,0,6.23,1.19,8.92,3.55,2.67,2.4,4.07,5.91,4.2,10.55v26.95h-7.88v-24.17c0-2.84-.73-5.01-2.2-6.49-1.44-1.51-3.29-2.27-5.56-2.27s-4.14.76-5.6,2.27c-1.49,1.49-2.23,3.65-2.23,6.49v24.17h-7.88v-40.55Z"/>
    <path class="st2" d="M759.53,1418.8c3.21,3.47,7.36,5.2,12.44,5.2,2.28,0,4.13-.46,5.58-1.37,1.44-.91,2.16-2.19,2.16-3.83,0-1.46-.43-2.47-1.29-3.05-.88-.6-2.06-.92-3.53-.98l-6.98-.62c-3.31-.31-6-1.46-8.08-3.44-2.12-1.93-3.21-4.62-3.26-8.09.05-4.17,1.48-7.29,4.28-9.38,2.73-2.08,6.18-3.13,10.38-3.13,1.82,0,3.45.12,4.88.35,1.44.26,2.79.62,4.05,1.09,2.42,1.02,4.59,2.38,6.51,4.1l-4.89,5.89c-1.52-1.13-3.12-2.06-4.82-2.8-1.67-.66-3.59-.99-5.76-.99-2.48,0-4.21.46-5.2,1.37-1.04.91-1.55,2.09-1.55,3.52-.05.91.34,1.71,1.17,2.39.76.76,2.1,1.24,4.02,1.45l6.52.51c4.09.31,7.05,1.59,8.87,3.83,1.69,2.19,2.54,4.97,2.54,8.33-.05,3.94-1.6,6.97-4.66,9.11-3.03,2.19-6.9,3.31-11.62,3.36-6.41,0-12.17-2.42-17.3-7.26l5.5-5.59Z"/>
    <path class="st2" d="M797.26,1378.3h7.88v12.34h5.75v6.25h-5.75v23.64c-.05,2.06.88,3.06,2.8,3.01h2.95v7.65h-4.12c-2.77,0-5.04-.88-6.8-2.65-1.81-1.69-2.72-4.13-2.72-7.33v-24.31h-3.96v-6.25h3.96v-12.34Z"/>
    <path class="st2" d="M819.01,1390.64h7.88v4.3h.17c2.6-3.2,6-4.8,10.22-4.8,3.15.05,5.9,1.09,8.25,3.11l-5.76,7.04c-1.67-1.36-3.4-2.04-5.19-2.04-2.02,0-3.75.68-5.19,2.03-1.62,1.33-2.45,3.48-2.5,6.45v24.45h-7.88v-40.55Z"/>
    <path class="st2" d="M849.17,1390.64h7.88v24.17c0,2.74.74,4.88,2.23,6.42,1.46,1.54,3.33,2.31,5.6,2.31s4.12-.77,5.56-2.31c1.46-1.54,2.2-3.68,2.2-6.42v-24.17h7.88v40.55h-7.88v-4.34h-.15c-2.6,3.2-5.99,4.8-10.17,4.8-3.25-.05-6.19-1.27-8.81-3.67-2.85-2.34-4.3-5.8-4.35-10.37v-26.98Z"/>
    <path class="st2" d="M921.04,1424.66c-1.72,2.02-3.73,3.67-6.06,4.93-2.32,1.32-5.01,2.01-8.06,2.06-4.63,0-8.7-1.63-12.2-4.88-3.63-3.25-5.49-8.53-5.59-15.82.1-7.37,1.97-12.71,5.6-16.02,3.5-3.25,7.57-4.86,12.21-4.8,3.05.05,5.73.7,8.05,1.95,2.32,1.27,4.34,2.97,6.05,5.11l-5.83,5.34c-1.99-2.74-4.65-4.17-7.98-4.27-6.71-.1-10.12,4.13-10.22,12.7.1,8.52,3.51,12.71,10.22,12.58,3.33-.05,5.99-1.46,7.98-4.23l5.83,5.36Z"/>
    <path class="st2" d="M928.12,1378.3h7.88v12.34h5.75v6.25h-5.75v23.64c-.05,2.06.88,3.06,2.8,3.01h2.95v7.65h-4.12c-2.77,0-5.04-.88-6.8-2.65-1.81-1.69-2.72-4.13-2.72-7.33v-24.31h-3.96v-6.25h3.96v-12.34Z"/>
    <path class="st2" d="M950.11,1374.23h7.88v8.12h-7.88v-8.12ZM950.11,1390.64h7.88v40.55h-7.88v-40.55Z"/>
    <path class="st2" d="M967.1,1410.87c0-4.28.34-7.57,1.02-9.86.71-2.24,1.79-4.13,3.25-5.67,1.08-1.35,2.6-2.55,4.54-3.61,1.92-1.01,4.38-1.54,7.38-1.59,3.1.05,5.61.59,7.53,1.6,1.89,1.07,3.35,2.28,4.39,3.63,1.56,1.54,2.67,3.42,3.32,5.66.63,2.29.94,5.57.94,9.84s-.32,7.53-.95,9.77c-.66,2.24-1.76,4.18-3.33,5.82-.5.6-1.12,1.19-1.85,1.76-.66.65-1.5,1.21-2.53,1.68-1.92,1.12-4.42,1.71-7.53,1.76-3-.05-5.46-.64-7.38-1.76-1.94-1.02-3.46-2.16-4.54-3.44-1.46-1.64-2.55-3.58-3.25-5.82-.68-2.24-1.02-5.49-1.02-9.77ZM991.59,1410.95c0-2.9-.13-5.02-.38-6.35-.25-1.28-.77-2.4-1.56-3.37-.58-.91-1.44-1.63-2.58-2.16-1.09-.55-2.35-.82-3.79-.82-1.34,0-2.58.28-3.72.82-1.09.52-1.97,1.24-2.65,2.16-.68.97-1.18,2.09-1.48,3.37-.3,1.33-.46,3.42-.46,6.27s.15,4.89.46,6.19c.3,1.33.8,2.51,1.48,3.53.68.78,1.57,1.48,2.65,2.08,1.14.57,2.38.86,3.72.86,1.44,0,2.7-.29,3.79-.86,1.14-.6,2-1.29,2.58-2.08.78-1.02,1.3-2.2,1.56-3.53.25-1.31.38-3.34.38-6.11Z"/>
    <path class="st2" d="M1009.05,1390.64h7.88v4.3h.15c2.6-3.2,6-4.8,10.21-4.8,3.25,0,6.23,1.19,8.92,3.55,2.67,2.4,4.07,5.91,4.2,10.55v26.95h-7.88v-24.17c0-2.84-.73-5.01-2.2-6.49-1.44-1.51-3.29-2.27-5.56-2.27s-4.14.76-5.6,2.27c-1.49,1.49-2.23,3.65-2.23,6.49v24.17h-7.88v-40.55Z"/>
    <path class="st2" d="M1071.67,1378.3h7.88v12.34h5.75v6.25h-5.75v23.64c-.05,2.06.88,3.06,2.8,3.01h2.95v7.65h-4.12c-2.77,0-5.04-.88-6.8-2.65-1.81-1.69-2.72-4.13-2.72-7.33v-24.31h-3.96v-6.25h3.96v-12.34Z"/>
    <path class="st2" d="M1093.43,1374.23h7.88v20.7h.15c2.6-3.2,6-4.8,10.21-4.8,3.25,0,6.23,1.19,8.92,3.55,2.67,2.4,4.07,5.91,4.2,10.55v26.95h-7.88v-24.17c0-2.84-.73-5.01-2.2-6.49-1.44-1.51-3.29-2.27-5.56-2.27s-4.14.76-5.6,2.27c-1.49,1.49-2.23,3.65-2.23,6.49v24.17h-7.88v-56.95Z"/>
    <path class="st2" d="M1136.4,1390.64h7.88v4.3h.17c2.6-3.2,6-4.8,10.22-4.8,3.15.05,5.9,1.09,8.25,3.11l-5.76,7.04c-1.67-1.36-3.4-2.04-5.19-2.04-2.02,0-3.75.68-5.19,2.03-1.62,1.33-2.45,3.48-2.5,6.45v24.45h-7.88v-40.55Z"/>
    <path class="st2" d="M1164.13,1410.87c0-4.28.34-7.57,1.02-9.86.71-2.24,1.79-4.13,3.25-5.67,1.08-1.35,2.6-2.55,4.54-3.61,1.92-1.01,4.38-1.54,7.38-1.59,3.1.05,5.61.59,7.53,1.6,1.89,1.07,3.35,2.28,4.39,3.63,1.56,1.54,2.67,3.42,3.32,5.66.63,2.29.94,5.57.94,9.84s-.32,7.53-.95,9.77c-.66,2.24-1.76,4.18-3.33,5.82-.5.6-1.12,1.19-1.85,1.76-.66.65-1.5,1.21-2.53,1.68-1.92,1.12-4.42,1.71-7.53,1.76-3-.05-5.46-.64-7.38-1.76-1.94-1.02-3.46-2.16-4.54-3.44-1.46-1.64-2.55-3.58-3.25-5.82-.68-2.24-1.02-5.49-1.02-9.77ZM1188.62,1410.95c0-2.9-.13-5.02-.38-6.35-.25-1.28-.77-2.4-1.56-3.37-.58-.91-1.44-1.63-2.58-2.16-1.09-.55-2.35-.82-3.79-.82-1.34,0-2.58.28-3.72.82-1.09.52-1.97,1.24-2.65,2.16-.68.97-1.18,2.09-1.48,3.37-.3,1.33-.46,3.42-.46,6.27s.15,4.89.46,6.19c.3,1.33.8,2.51,1.48,3.53.68.78,1.57,1.48,2.65,2.08,1.14.57,2.38.86,3.72.86,1.44,0,2.7-.29,3.79-.86,1.14-.6,2-1.29,2.58-2.08.78-1.02,1.3-2.2,1.56-3.53.25-1.31.38-3.34.38-6.11Z"/>
    <path class="st2" d="M1206.08,1390.64h7.88v24.17c0,2.74.74,4.88,2.23,6.42,1.46,1.54,3.33,2.31,5.6,2.31s4.12-.77,5.56-2.31c1.46-1.54,2.2-3.68,2.2-6.42v-24.17h7.88v40.55h-7.88v-4.34h-.15c-2.6,3.2-5.99,4.8-10.17,4.8-3.25-.05-6.19-1.27-8.81-3.67-2.85-2.34-4.3-5.8-4.35-10.37v-26.98Z"/>
    <path class="st2" d="M1271.12,1426.95c-2.6,3.03-5.97,4.6-10.13,4.7-2.55-.05-4.66-.61-6.35-1.68-1.76-1.02-3.11-2.11-4.05-3.28-1.03-1.33-1.78-2.96-2.23-4.89-.48-1.9-.72-5.52-.72-10.87s.24-9.13.72-11.06c.45-1.9,1.2-3.5,2.23-4.81.93-1.27,2.28-2.41,4.05-3.42,1.69-.96,3.8-1.46,6.35-1.52,3.91,0,7.28,1.6,10.13,4.8v-4.3h7.88v39.57c-.1,6.09-1.8,10.57-5.1,13.44-3.33,2.94-7.31,4.41-11.94,4.41-5.31-.1-9.85-2.37-13.6-6.78l6.12-5.03c1.01.97,2.17,1.79,3.48,2.47,1.34.76,2.72,1.16,4.16,1.22,2.7,0,4.87-.77,6.5-2.32,1.61-1.57,2.44-3.74,2.5-6.51v-4.16ZM1255.53,1410.95c0,3.11.1,5.25.3,6.43.18,1.23.59,2.25,1.25,3.06.53.73,1.34,1.4,2.42,2,1.03.73,2.32,1.1,3.86,1.1s2.83-.37,3.86-1.1c1.03-.6,1.82-1.27,2.35-2,.66-.81,1.1-1.83,1.32-3.06.15-1.17.23-3.32.23-6.43s-.08-5.36-.23-6.58c-.23-1.23-.67-2.22-1.32-2.98-.53-.73-1.31-1.45-2.35-2.16-1.04-.6-2.32-.93-3.86-.98-1.54.05-2.83.38-3.86.98-1.09.71-1.89,1.42-2.42,2.16-.66.76-1.07,1.75-1.25,2.98-.2,1.23-.3,3.42-.3,6.58Z"/>
    <path class="st2" d="M1290.58,1374.23h7.88v20.7h.15c2.6-3.2,6-4.8,10.21-4.8,3.25,0,6.23,1.19,8.92,3.55,2.67,2.4,4.07,5.91,4.2,10.55v26.95h-7.88v-24.17c0-2.84-.73-5.01-2.2-6.49-1.44-1.51-3.29-2.27-5.56-2.27s-4.14.76-5.6,2.27c-1.49,1.49-2.23,3.65-2.23,6.49v24.17h-7.88v-56.95Z"/>
    <path class="st2" d="M171.05,1470.23h8.35v56.95h-8.35v-56.95Z"/>
    <path class="st2" d="M190.97,1486.64h7.88v4.3h.15c2.6-3.2,6-4.8,10.21-4.8,3.25,0,6.23,1.19,8.92,3.55,2.67,2.4,4.07,5.91,4.2,10.55v26.95h-7.88v-24.17c0-2.84-.73-5.01-2.2-6.49-1.44-1.51-3.29-2.27-5.56-2.27s-4.14.76-5.6,2.27c-1.49,1.49-2.23,3.65-2.23,6.49v24.17h-7.88v-40.55Z"/>
    <path class="st2" d="M234.4,1474.3h7.88v12.34h5.75v6.25h-5.75v23.64c-.05,2.06.88,3.06,2.8,3.01h2.95v7.65h-4.12c-2.77,0-5.04-.88-6.8-2.65-1.81-1.69-2.72-4.13-2.72-7.33v-24.31h-3.96v-6.25h3.96v-12.34Z"/>
    <path class="st2" d="M262.09,1510c0,3.26.91,5.73,2.73,7.43,1.69,1.72,3.91,2.58,6.66,2.58,3.21,0,6.07-1.32,8.59-3.95l5.72,5.04c-4.01,4.42-8.73,6.61-14.15,6.56-2.07,0-4.09-.31-6.05-.94-.98-.34-1.94-.79-2.87-1.37-.98-.49-1.9-1.11-2.76-1.84-1.66-1.51-3.01-3.62-4.05-6.33-1.14-2.6-1.7-5.99-1.7-10.16s.49-7.34,1.48-10c.98-2.71,2.24-4.84,3.78-6.41,1.56-1.59,3.32-2.73,5.26-3.44,1.92-.7,3.81-1.05,5.67-1.05,4.49.05,8.28,1.58,11.38,4.57,3.15,3.05,4.75,7.24,4.8,12.58v6.71h-24.49ZM278.7,1503.28c-.1-3.17-.92-5.56-2.46-7.18-1.52-1.54-3.46-2.32-5.84-2.32s-4.32.77-5.84,2.32c-1.49,1.62-2.31,4.02-2.46,7.18h16.61Z"/>
    <path class="st2" d="M296.16,1486.64h7.88v4.3h.17c2.6-3.2,6.01-4.8,10.22-4.8,3.15.05,5.9,1.09,8.25,3.11l-5.76,7.04c-1.67-1.36-3.4-2.04-5.19-2.04-2.02,0-3.75.68-5.19,2.03-1.62,1.33-2.45,3.48-2.5,6.45v24.45h-7.88v-40.55Z"/>
    <path class="st2" d="M346.48,1523.6h-.15c-.73,1.38-1.87,2.39-3.4,3.05-1.51.68-3.61,1.01-6.28,1.01-4.39-.05-7.77-1.25-10.13-3.59-2.5-2.29-3.74-5.22-3.74-8.79s1.08-6.24,3.25-8.48c2.17-2.29,5.34-3.46,9.53-3.51h10.93v-4.28c.05-3.58-2.63-5.32-8.06-5.22-1.97,0-3.52.21-4.65.63-1.19.5-2.12,1.33-2.8,2.51l-6.21-4.89c3-4.04,7.42-6.01,13.27-5.9,4.94-.05,8.88.91,11.83,2.89,2.95,2.03,4.45,5.52,4.5,10.47v27.7h-7.88v-3.59ZM346.48,1510h-9.47c-4.6.1-6.87,1.73-6.82,4.89,0,1.38.59,2.55,1.78,3.52,1.14,1.07,3.02,1.6,5.65,1.6,3.31.05,5.65-.35,7.01-1.21,1.24-.86,1.86-2.81,1.86-5.86v-2.93Z"/>
    <path class="st2" d="M394.75,1520.66c-1.72,2.02-3.73,3.67-6.06,4.93-2.32,1.32-5.01,2.01-8.06,2.06-4.63,0-8.7-1.63-12.2-4.88-3.63-3.25-5.49-8.53-5.59-15.82.1-7.37,1.97-12.71,5.6-16.02,3.5-3.25,7.57-4.86,12.21-4.8,3.05.05,5.73.7,8.05,1.95,2.32,1.27,4.34,2.97,6.05,5.11l-5.83,5.34c-1.99-2.74-4.65-4.17-7.98-4.27-6.71-.1-10.12,4.13-10.22,12.7.1,8.52,3.51,12.71,10.22,12.58,3.33-.05,5.99-1.46,7.98-4.23l5.83,5.36Z"/>
    <path class="st2" d="M401.83,1474.3h7.88v12.34h5.75v6.25h-5.75v23.64c-.05,2.06.88,3.06,2.8,3.01h2.95v7.65h-4.12c-2.77,0-5.04-.88-6.8-2.65-1.81-1.69-2.72-4.13-2.72-7.33v-24.31h-3.96v-6.25h3.96v-12.34Z"/>
    <path class="st2" d="M423.82,1470.23h7.88v8.12h-7.88v-8.12ZM423.82,1486.64h7.88v40.55h-7.88v-40.55Z"/>
    <path class="st2" d="M437.18,1486.64h8.35l9.22,28.42h.15l9.19-28.42h8.39l-14.4,40.55h-6.5l-14.4-40.55Z"/>
    <path class="st2" d="M483.73,1510c0,3.26.91,5.73,2.73,7.43,1.69,1.72,3.91,2.58,6.66,2.58,3.21,0,6.07-1.32,8.59-3.95l5.72,5.04c-4.01,4.42-8.73,6.61-14.15,6.56-2.07,0-4.09-.31-6.05-.94-.98-.34-1.94-.79-2.87-1.37-.98-.49-1.9-1.11-2.76-1.84-1.66-1.51-3.01-3.62-4.05-6.33-1.14-2.6-1.7-5.99-1.7-10.16s.49-7.34,1.48-10c.98-2.71,2.24-4.84,3.78-6.41,1.56-1.59,3.32-2.73,5.26-3.44,1.92-.7,3.81-1.05,5.67-1.05,4.49.05,8.28,1.58,11.38,4.57,3.15,3.05,4.75,7.24,4.8,12.58v6.71h-24.49ZM500.34,1503.28c-.1-3.17-.92-5.56-2.46-7.18-1.52-1.54-3.46-2.32-5.84-2.32s-4.32.77-5.84,2.32c-1.49,1.62-2.31,4.02-2.46,7.18h16.61Z"/>
    <path class="st2" d="M538.37,1513.39c4.39,3.73,9.62,5.62,15.68,5.68,7.17-.1,10.8-2.75,10.91-7.94.05-4.25-2.35-6.8-7.19-7.66-2.22-.31-4.65-.67-7.3-1.06-4.74-.81-8.35-2.62-10.82-5.43-2.55-2.89-3.82-6.41-3.82-10.56,0-4.98,1.6-8.99,4.8-12.04,3.1-3.02,7.5-4.56,13.19-4.61,6.85.16,12.81,2.12,17.88,5.88l-4.66,7.09c-4.14-2.82-8.69-4.28-13.67-4.38-2.57,0-4.72.67-6.44,1.99-1.79,1.38-2.71,3.44-2.76,6.18,0,1.64.62,3.13,1.85,4.46,1.24,1.36,3.22,2.29,5.94,2.81,1.51.26,3.58.56,6.21.9,5.17.73,8.99,2.65,11.47,5.75,2.45,3.05,3.67,6.59,3.67,10.63-.28,10.9-6.73,16.42-19.36,16.58-8.17,0-15.19-2.59-21.06-7.77l5.48-6.49Z"/>
    <path class="st2" d="M583.35,1474.3h7.88v12.34h5.75v6.25h-5.75v23.64c-.05,2.06.88,3.06,2.8,3.01h2.95v7.65h-4.12c-2.77,0-5.04-.88-6.8-2.65-1.81-1.69-2.72-4.13-2.72-7.33v-24.31h-3.96v-6.25h3.96v-12.34Z"/>
    <path class="st2" d="M625.73,1523.6h-.15c-.73,1.38-1.87,2.39-3.4,3.05-1.51.68-3.61,1.01-6.28,1.01-4.39-.05-7.77-1.25-10.13-3.59-2.5-2.29-3.74-5.22-3.74-8.79s1.08-6.24,3.25-8.48c2.17-2.29,5.34-3.46,9.53-3.51h10.93v-4.28c.05-3.58-2.63-5.32-8.06-5.22-1.97,0-3.52.21-4.65.63-1.19.5-2.12,1.33-2.8,2.51l-6.21-4.89c3-4.04,7.42-6.01,13.27-5.9,4.94-.05,8.88.91,11.83,2.89,2.95,2.03,4.45,5.52,4.5,10.47v27.7h-7.88v-3.59ZM625.73,1510h-9.47c-4.6.1-6.87,1.73-6.82,4.89,0,1.38.59,2.55,1.78,3.52,1.14,1.07,3.02,1.6,5.65,1.6,3.31.05,5.65-.35,7.01-1.21,1.24-.86,1.86-2.81,1.86-5.86v-2.93Z"/>
    <path class="st2" d="M645.58,1474.3h7.88v12.34h5.75v6.25h-5.75v23.64c-.05,2.06.88,3.06,2.8,3.01h2.95v7.65h-4.12c-2.77,0-5.04-.88-6.8-2.65-1.81-1.69-2.72-4.13-2.72-7.33v-24.31h-3.96v-6.25h3.96v-12.34Z"/>
    <path class="st2" d="M667.57,1470.23h7.88v8.12h-7.88v-8.12ZM667.57,1486.64h7.88v40.55h-7.88v-40.55Z"/>
    <path class="st2" d="M687.66,1514.8c3.21,3.47,7.36,5.2,12.44,5.2,2.28,0,4.13-.46,5.58-1.37,1.44-.91,2.16-2.19,2.16-3.83,0-1.46-.43-2.47-1.29-3.05-.88-.6-2.06-.92-3.53-.98l-6.98-.62c-3.31-.31-6-1.46-8.08-3.44-2.12-1.93-3.21-4.62-3.26-8.09.05-4.17,1.48-7.29,4.28-9.38,2.73-2.08,6.18-3.13,10.38-3.13,1.82,0,3.45.12,4.88.35,1.44.26,2.79.62,4.05,1.09,2.42,1.02,4.59,2.38,6.51,4.1l-4.89,5.89c-1.52-1.13-3.12-2.06-4.82-2.8-1.67-.66-3.59-.99-5.76-.99-2.48,0-4.21.46-5.2,1.37-1.04.91-1.55,2.09-1.55,3.52-.05.91.34,1.71,1.17,2.39.76.76,2.1,1.24,4.02,1.45l6.52.51c4.09.31,7.05,1.59,8.87,3.83,1.69,2.19,2.54,4.97,2.54,8.33-.05,3.94-1.6,6.97-4.66,9.11-3.03,2.19-6.9,3.31-11.62,3.36-6.41,0-12.17-2.42-17.3-7.26l5.5-5.59Z"/>
    <path class="st2" d="M725.38,1474.3h7.88v12.34h5.75v6.25h-5.75v23.64c-.05,2.06.88,3.06,2.8,3.01h2.95v7.65h-4.12c-2.77,0-5.04-.88-6.8-2.65-1.81-1.69-2.72-4.13-2.72-7.33v-24.31h-3.96v-6.25h3.96v-12.34Z"/>
    <path class="st2" d="M747.37,1470.23h7.88v8.12h-7.88v-8.12ZM747.37,1486.64h7.88v40.55h-7.88v-40.55Z"/>
    <path class="st2" d="M795.22,1520.66c-1.72,2.02-3.73,3.67-6.06,4.93-2.32,1.32-5.01,2.01-8.06,2.06-4.63,0-8.7-1.63-12.2-4.88-3.63-3.25-5.49-8.53-5.59-15.82.1-7.37,1.97-12.71,5.6-16.02,3.5-3.25,7.57-4.86,12.21-4.8,3.05.05,5.73.7,8.05,1.95,2.32,1.27,4.34,2.97,6.05,5.11l-5.83,5.34c-1.99-2.74-4.65-4.17-7.98-4.27-6.71-.1-10.12,4.13-10.22,12.7.1,8.52,3.51,12.71,10.22,12.58,3.33-.05,5.99-1.46,7.98-4.23l5.83,5.36Z"/>
    <path class="st2" d="M822.45,1523.6h-.15c-.73,1.38-1.87,2.39-3.4,3.05-1.51.68-3.61,1.01-6.28,1.01-4.39-.05-7.77-1.25-10.13-3.59-2.5-2.29-3.74-5.22-3.74-8.79s1.08-6.24,3.25-8.48c2.17-2.29,5.34-3.46,9.53-3.51h10.93v-4.28c.05-3.58-2.63-5.32-8.06-5.22-1.97,0-3.52.21-4.65.63-1.19.5-2.12,1.33-2.8,2.51l-6.21-4.89c3-4.04,7.42-6.01,13.27-5.9,4.94-.05,8.88.91,11.83,2.89,2.95,2.03,4.45,5.52,4.5,10.47v27.7h-7.88v-3.59ZM822.45,1510h-9.47c-4.6.1-6.88,1.73-6.82,4.89,0,1.38.59,2.55,1.78,3.52,1.14,1.07,3.02,1.6,5.65,1.6,3.31.05,5.65-.35,7.01-1.21,1.24-.86,1.86-2.81,1.86-5.86v-2.93Z"/>
    <path class="st2" d="M841.83,1470.23h7.88v46.52c0,1.85.99,2.78,2.96,2.78h2.73v7.65h-3.52c-2.87,0-5.24-.74-7.11-2.22-1.97-1.5-2.95-4.03-2.95-7.59v-47.15Z"/>
    <path class="st2" d="M882.33,1470.23h7.87l15.82,37.12,15.51-37.12h7.9v56.95h-8.35v-35.52h-.19l-11.55,27.35h-6.97l-11.55-27.35h-.15v35.52h-8.35v-56.95Z"/>
    <path class="st2" d="M940.3,1506.87c0-4.28.34-7.57,1.02-9.86.71-2.24,1.79-4.13,3.25-5.67,1.08-1.35,2.6-2.55,4.54-3.61,1.92-1.01,4.38-1.54,7.38-1.59,3.1.05,5.61.59,7.53,1.6,1.89,1.07,3.35,2.28,4.39,3.63,1.56,1.54,2.67,3.42,3.32,5.66.63,2.29.94,5.57.94,9.84s-.32,7.53-.95,9.77c-.66,2.24-1.76,4.18-3.33,5.82-.5.6-1.12,1.19-1.85,1.76-.66.65-1.5,1.21-2.53,1.68-1.92,1.12-4.42,1.71-7.53,1.76-3-.05-5.46-.64-7.38-1.76-1.94-1.02-3.46-2.16-4.54-3.44-1.46-1.64-2.55-3.58-3.25-5.82-.68-2.24-1.02-5.49-1.02-9.77ZM964.8,1506.95c0-2.9-.13-5.02-.38-6.35-.25-1.28-.77-2.4-1.56-3.37-.58-.91-1.44-1.63-2.58-2.16-1.09-.55-2.35-.82-3.79-.82-1.34,0-2.58.28-3.72.82-1.09.52-1.97,1.24-2.65,2.16-.68.97-1.18,2.09-1.48,3.37-.3,1.33-.46,3.42-.46,6.27s.15,4.89.46,6.19c.3,1.33.8,2.51,1.48,3.53.68.78,1.57,1.48,2.65,2.08,1.14.57,2.38.86,3.72.86,1.44,0,2.7-.29,3.79-.86,1.14-.6,2-1.29,2.58-2.08.78-1.02,1.3-2.2,1.56-3.53.25-1.31.38-3.34.38-6.11Z"/>
    <path class="st2" d="M1005.73,1522.95c-2.6,3.03-5.99,4.6-10.17,4.7-2.37-.05-4.4-.56-6.09-1.52-1.76-.94-3.24-2.19-4.42-3.75-1.08-1.28-1.8-3.01-2.15-5.2-.43-2.08-.64-5.53-.64-10.32s.21-8.34.64-10.4c.35-2.08,1.07-3.77,2.15-5.04,2.22-3.39,5.72-5.16,10.51-5.28,2.02,0,3.88.43,5.59,1.28,1.59.91,3.11,2.07,4.58,3.5v-20.68h7.88v56.95h-7.88v-4.23ZM997.97,1494.25c-1.87,0-3.29.33-4.28.98-1.08.71-1.88,1.67-2.38,2.9-.48,1.23-.79,2.56-.95,4-.15,1.54-.23,3.12-.23,4.74s.08,3.04.23,4.51c.15,1.54.47,2.93.95,4.15.5,1.18,1.3,2.14,2.38,2.9.98.73,2.41,1.1,4.28,1.1s3.34-.39,4.43-1.18c1.08-.76,1.83-1.75,2.23-2.98.5-1.23.84-2.6,1.02-4.12.05-1.49.08-2.95.08-4.39,0-1.57-.03-3.07-.08-4.51-.18-1.44-.52-2.77-1.02-4-.4-1.23-1.15-2.22-2.23-2.98s-2.56-1.14-4.43-1.14Z"/>
    <path class="st2" d="M1029.71,1510c0,3.26.91,5.73,2.73,7.43,1.69,1.72,3.91,2.58,6.66,2.58,3.21,0,6.07-1.32,8.59-3.95l5.72,5.04c-4.01,4.42-8.72,6.61-14.15,6.56-2.07,0-4.08-.31-6.05-.94-.98-.34-1.94-.79-2.87-1.37-.98-.49-1.9-1.11-2.76-1.84-1.66-1.51-3.01-3.62-4.05-6.33-1.14-2.6-1.7-5.99-1.7-10.16s.49-7.34,1.47-10c.98-2.71,2.24-4.84,3.78-6.41,1.56-1.59,3.32-2.73,5.26-3.44,1.92-.7,3.81-1.05,5.67-1.05,4.49.05,8.28,1.58,11.38,4.57,3.15,3.05,4.75,7.24,4.8,12.58v6.71h-24.49ZM1046.32,1503.28c-.1-3.17-.92-5.56-2.46-7.18-1.52-1.54-3.46-2.32-5.84-2.32s-4.32.77-5.84,2.32c-1.49,1.62-2.31,4.02-2.46,7.18h16.61Z"/>
    <path class="st2" d="M1063.78,1470.23h7.88v46.52c0,1.85.99,2.78,2.96,2.78h2.73v7.65h-3.52c-2.87,0-5.24-.74-7.11-2.22-1.97-1.5-2.95-4.03-2.95-7.59v-47.15Z"/>
    <path class="st2" d="M1084.41,1470.23h7.88v46.52c0,1.85.99,2.78,2.96,2.78h2.73v7.65h-3.52c-2.87,0-5.24-.74-7.11-2.22-1.97-1.5-2.95-4.03-2.95-7.59v-47.15Z"/>
    <path class="st2" d="M1105.26,1470.23h7.88v8.12h-7.88v-8.12ZM1105.26,1486.64h7.88v40.55h-7.88v-40.55Z"/>
    <path class="st2" d="M1124.21,1486.64h7.88v4.3h.15c2.6-3.2,6-4.8,10.21-4.8,3.25,0,6.23,1.19,8.92,3.55,2.67,2.4,4.07,5.91,4.2,10.55v26.95h-7.88v-24.17c0-2.84-.73-5.01-2.2-6.49-1.44-1.51-3.29-2.27-5.56-2.27s-4.14.76-5.6,2.27c-1.49,1.49-2.23,3.65-2.23,6.49v24.17h-7.88v-40.55Z"/>
    <path class="st2" d="M1189.25,1522.95c-2.6,3.03-5.97,4.6-10.13,4.7-2.55-.05-4.66-.61-6.35-1.68-1.76-1.02-3.11-2.11-4.05-3.28-1.03-1.33-1.78-2.96-2.23-4.89-.48-1.9-.72-5.52-.72-10.87s.24-9.13.72-11.06c.45-1.9,1.2-3.5,2.23-4.81.93-1.27,2.28-2.41,4.05-3.42,1.69-.96,3.8-1.46,6.35-1.52,3.91,0,7.28,1.6,10.13,4.8v-4.3h7.88v39.57c-.1,6.09-1.8,10.57-5.1,13.44-3.33,2.94-7.31,4.41-11.94,4.41-5.31-.1-9.85-2.37-13.6-6.78l6.12-5.03c1.01.97,2.17,1.79,3.48,2.47,1.34.76,2.72,1.16,4.16,1.22,2.7,0,4.87-.77,6.5-2.32,1.61-1.57,2.44-3.74,2.5-6.51v-4.16ZM1173.66,1506.95c0,3.11.1,5.25.3,6.43.18,1.23.59,2.25,1.25,3.06.53.73,1.34,1.4,2.42,2,1.03.73,2.32,1.1,3.86,1.1s2.83-.37,3.86-1.1c1.03-.6,1.82-1.27,2.35-2,.66-.81,1.1-1.83,1.32-3.06.15-1.17.23-3.32.23-6.43s-.08-5.36-.23-6.58c-.23-1.23-.67-2.22-1.32-2.98-.53-.73-1.31-1.45-2.35-2.16-1.04-.6-2.32-.93-3.86-.98-1.54.05-2.83.38-3.86.98-1.09.71-1.89,1.42-2.42,2.16-.66.76-1.07,1.75-1.25,2.98-.2,1.23-.3,3.42-.3,6.58Z"/>
  </g>
</svg>